<svg xmlns="http://www.w3.org/2000/svg" width="173.995" height="45"><path d="M45 22.501C45 34.9 34.9 45 22.5 45 10.073 45 0 34.9 0 22.501 0 10.1 10.1 0 22.5 0 34.926 0 45 10.1 45 22.501z" fill="#408d68"/><path d="M32.997 11.81H16.203c-5.188 0-7.964 4.394-9.175 7.757-1.391 3.869-1.64 10.919-1.64 12.4l-.003.807c0 .2.2.4.4.355h3.17c.199 0 .356-.16.356-.355v-.77c0-.953-.1-1.896.356-3.332.771-2.445 2.06-3.828 4.627-3.926h2.069v8.027c0 .2.2.4.4.4h3.526c.194 0 .354-.16.354-.355l.002-3.521c0-.357.047-.709.163-1.02.333-1.043 1.11-2.086 2.387-2.086 1.59 0 2.2 1.3 2.2 3.127l-.003 3.5c0 .2.2.4.4.4h3.681a.354.354 0 0 0 .357-.355V29.15c0-.354.071-.732.164-1.039.38-.996 1.006-1.875 2.217-1.875 1.658 0 2.3 1.3 2.3 3.533v3.094c0 .2.2.4.4.355h3.926c.197 0 .364-.16.364-.355l.002-15.484C38.95 14.2 36 11.8 33 11.81zm-16.518 8.341h-.938c-.979 0-1.601-.539-1.601-1.349 0-.917.666-1.314 1.633-1.314.442 0 .8 0 .9.084v2.579z" fill="#fff"/><path d="M52.227 11.905c1.472-.282 3.602-.47 5.826-.47 3.038 0 5.1.5 6.5 1.691 1.159 1 1.8 2.4 1.8 4.3 0 2.725-1.848 4.573-3.853 5.262v.094c1.535.6 2.4 2 2.9 4.072.689 2.6 1.3 5.1 1.7 5.888h-3.946c-.313-.626-.846-2.349-1.409-4.979-.626-2.756-1.598-3.633-3.79-3.696h-1.941v8.676h-3.821V11.905zm3.821 9.303h2.286c2.6 0 4.197-1.378 4.197-3.477 0-2.287-1.597-3.383-4.103-3.383-1.221 0-2.004.094-2.38.188v6.672zm18.948 11.838c-4.291 0-7.642-2.944-7.642-7.861 0-5.011 3.289-8.081 7.893-8.081 4.542 0 7.6 3.2 7.6 7.8 0 5.605-3.946 8.111-7.798 8.111h-.053zm.125-2.787c2.192 0 3.727-2.131 3.727-5.23 0-2.381-1.065-5.137-3.696-5.137-2.725 0-3.821 2.662-3.821 5.199 0 2.9 1.5 5.2 3.8 5.168h-.01zm9.459-1.128c.846.5 2.5 1.1 3.9 1.128 1.691 0 2.443-.721 2.443-1.723 0-1.034-.627-1.535-2.506-2.225-2.975-1.002-4.197-2.631-4.197-4.447 0-2.694 2.224-4.761 5.763-4.761 1.691 0 3.2.4 4.1.908l-.783 2.7c-.626-.375-1.879-.877-3.226-.877-1.378 0-2.13.689-2.13 1.629 0 1 .7 1.4 2.7 2.1 2.788 1 4 2.4 4.1 4.636 0 2.787-2.16 4.792-6.201 4.792-1.848 0-3.508-.439-4.635-1.064l.672-2.796zm15.001-2.975c.094 2.8 2.3 3.9 4.7 3.946 1.785 0 3.037-.282 4.228-.688l.563 2.6c-1.314.563-3.131.971-5.324.971-4.948 0-7.861-3.038-7.861-7.705 0-4.228 2.568-8.206 7.455-8.206 4.947 0 6.6 4.1 6.6 7.422 0 .721-.062 1.285-.125 1.629H99.581zm6.702-2.694c.031-1.409-.595-3.727-3.163-3.727-2.38 0-3.383 2.161-3.539 3.727h6.702zm5.481-1.472c0-1.754-.062-3.226-.125-4.541h3.352l.188 2.286h.094c.689-1.19 2.35-2.631 4.887-2.631 2.662 0 5.4 1.7 5.4 6.545v9.052h-3.852v-8.612c0-2.193-.814-3.853-2.914-3.853-1.534 0-2.599 1.096-3.006 2.3-.125.312-.188.783-.188 1.221v8.989h-3.854V21.99zm17.414 10.712V20.331h-2.067V17.45h2.067v-.658c0-1.973.532-3.946 1.848-5.199 1.127-1.065 2.662-1.472 3.978-1.472 1.034 0 1.8.2 2.4.376l-.25 2.975a4.676 4.676 0 0 0-1.66-.282c-1.91 0-2.537 1.597-2.537 3.477v.783h3.352v2.881h-3.32v12.371h-3.811zm11.65-6.546c.094 2.8 2.3 3.9 4.7 3.946 1.785 0 3.039-.282 4.229-.688l.564 2.6c-1.316.563-3.133.971-5.324.971-4.949 0-7.861-3.038-7.861-7.705 0-4.228 2.568-8.206 7.453-8.206 4.949 0 6.6 4.1 6.6 7.422a9.32 9.32 0 0 1-.126 1.629h-10.235zm6.702-2.694c.031-1.409-.595-3.727-3.163-3.727-2.381 0-3.383 2.161-3.539 3.727h6.702zm5.481-13.028h3.853v22.268h-3.853V10.434zm20.858 0v17.977c0 1.6.1 3.3.1 4.291h-3.414l-.188-2.411h-.063c-.908 1.691-2.756 2.756-4.947 2.8-3.665 0-6.547-3.102-6.547-7.799-.031-5.105 3.164-8.143 6.828-8.143 2.099 0 3.6.8 4.3 1.973H170v-8.644h3.869zm-3.851 13.373c0-.313-.031-.721-.094-1.034-.345-1.472-1.566-2.693-3.32-2.693-2.475 0-3.852 2.192-3.852 5 0 2.8 1.4 4.9 3.8 4.854 1.566 0 2.944-1.064 3.32-2.725.094-.344.125-.72.125-1.127v-2.275z"/></svg>