<svg height="107" width="269" xmlns="http://www.w3.org/2000/svg"><linearGradient id="a" x1="50.029%" x2="50.029%" y1="-.002%" y2="99.928%"><stop offset="0" stop-color="#fff" stop-opacity=".3"/><stop offset=".02" stop-color="#fff" stop-opacity=".28"/><stop offset=".28" stop-color="#fff" stop-opacity=".13"/><stop offset=".48" stop-color="#fff" stop-opacity=".04"/><stop offset=".6" stop-color="#fff" stop-opacity="0"/></linearGradient><linearGradient id="b" x1="50.018%" x2="50.018%" y1=".024%" y2="100.001%"><stop offset="0" stop-color="#fff" stop-opacity=".2"/><stop offset=".14" stop-color="#fff" stop-opacity=".13"/><stop offset=".36" stop-color="#fff" stop-opacity=".04"/><stop offset=".5" stop-color="#fff" stop-opacity="0"/></linearGradient><g fill="none"><path d="M0 0h269v107H0z" fill="#d33a2c"/><ellipse cx="51.75" cy="77.2" fill="#000" opacity=".05" rx="24.63" ry="3.38"/><path d="M218.45 44.65A10.89 10.89 0 0 1 239 39.56l-4 1.3a6.78 6.78 0 1 0-.44 8.16l-2.38.39-2.89-2.89 6.22-1 6.23-1-1 6.22-1 6.22-2.97-2.96.28-1.71a10.89 10.89 0 0 1-18.6-7.68zM92.6 47.89a7 7 0 0 0 .71 3.39 6.74 6.74 0 0 0 2 2.35A8.56 8.56 0 0 0 98.23 55c1.115.3 2.265.45 3.42.45a12.92 12.92 0 0 0 3.81-.5 8.1 8.1 0 0 0 2.77-1.4 5.92 5.92 0 0 0 1.69-2.17 6.53 6.53 0 0 0 .57-2.71 5.08 5.08 0 0 0-.78-2.92 6.07 6.07 0 0 0-1.78-1.84 7.46 7.46 0 0 0-2.11-1 16.38 16.38 0 0 0-1.64-.45l-3.25-.83A12.79 12.79 0 0 1 99 41a2.13 2.13 0 0 1-.92-.71 1.9 1.9 0 0 1-.24-1 2 2 0 0 1 .3-1.13 2.73 2.73 0 0 1 .74-.74 3.23 3.23 0 0 1 1-.42c.371-.08.75-.12 1.13-.12a7.68 7.68 0 0 1 1.62.12c.465.087.909.26 1.31.51.383.245.691.591.89 1 .247.46.39.969.42 1.49h4.52a6.34 6.34 0 0 0-.71-3.13 5.91 5.91 0 0 0-1.87-2.14 7.72 7.72 0 0 0-2.74-1.19 12.77 12.77 0 0 0-3.18-.39 10.82 10.82 0 0 0-2.86.39 8 8 0 0 0-2.56 1.19 6.46 6.46 0 0 0-1.85 2 5.57 5.57 0 0 0-.68 2.83 5.39 5.39 0 0 0 .54 2.5 5.41 5.41 0 0 0 1.46 1.7c.61.47 1.283.85 2 1.13.76.284 1.534.524 2.32.72.77.22 1.54.42 2.29.59a15 15 0 0 1 2 .63 4.28 4.28 0 0 1 1.43.89c.382.363.59.873.57 1.4a2.12 2.12 0 0 1-.42 1.34 3 3 0 0 1-1 .8 4.89 4.89 0 0 1-1.34.42 10.82 10.82 0 0 1-1.34.09 7.71 7.71 0 0 1-1.83-.16 5.2 5.2 0 0 1-1.52-.68 3.55 3.55 0 0 1-1-1.22 3.88 3.88 0 0 1-.39-1.81zm51.88-9l2.68 7.8h-5.5zm-10.32 15.8V33.7h-6.58l-4.76 14.61-5-14.61h-6.54v21.24h4.37l.06-14.94 5.21 14.91h3.6l5.27-15.06v15.09h9l1.67-4.73h7.94l1.6 4.73h4.85l-7.96-21.24h-4.79zm19.2-6.79a7 7 0 0 0 .72 3.39 6.77 6.77 0 0 0 2 2.35A8.57 8.57 0 0 0 159 55c1.115.3 2.265.45 3.42.45a13 13 0 0 0 3.81-.5 8.1 8.1 0 0 0 2.77-1.4 5.89 5.89 0 0 0 1.7-2.17 6.48 6.48 0 0 0 .56-2.71 5.06 5.06 0 0 0-.77-2.92 6.09 6.09 0 0 0-1.79-1.84 7.45 7.45 0 0 0-2.11-1 16 16 0 0 0-1.64-.45l-3.24-.83a12.91 12.91 0 0 1-1.94-.66 2.14 2.14 0 0 1-.92-.71 1.9 1.9 0 0 1-.24-1 2 2 0 0 1 .3-1.13 2.69 2.69 0 0 1 .74-.74 3.21 3.21 0 0 1 1-.42c.371-.08.75-.12 1.13-.12a7.69 7.69 0 0 1 1.58.15c.465.087.909.26 1.31.51.382.246.69.592.89 1 .252.46.402.967.44 1.49h4.52a6.33 6.33 0 0 0-.72-3.13 5.88 5.88 0 0 0-1.87-2.14 7.7 7.7 0 0 0-2.74-1.19 12.76 12.76 0 0 0-3.19-.35 10.82 10.82 0 0 0-2.86.39 8 8 0 0 0-2.56 1.19 6.43 6.43 0 0 0-1.84 2 5.57 5.57 0 0 0-.68 2.83 5.37 5.37 0 0 0 .54 2.5 5.43 5.43 0 0 0 1.46 1.7 8.27 8.27 0 0 0 2 1.13c.76.283 1.534.523 2.32.72.77.22 1.54.42 2.29.59.68.163 1.349.373 2 .63a4.26 4.26 0 0 1 1.43.89c.377.366.58.875.56 1.4a2.14 2.14 0 0 1-.42 1.34 3 3 0 0 1-1 .8 4.91 4.91 0 0 1-1.34.42 10.82 10.82 0 0 1-1.34.09c-.6 0-1.197-.07-1.78-.21a5.18 5.18 0 0 1-1.52-.68 3.59 3.59 0 0 1-1-1.22 3.89 3.89 0 0 1-.39-1.81zm18.68 7h4.67v-9.12h8.6v9.16H190V33.7h-4.67v8.15h-8.6V33.7H172zm20.07 0h4.67V33.7h-4.67zm6.81 0h4.37l.06-14.22 8.84 14.22h4.67V33.7h-4.38l-.05 14.3-8.86-14.3h-4.64zM59.57 59.11a27.55 27.55 0 0 0-7-3.78 28.32 28.32 0 0 1-5.36-2.87c-4-2.787-6-6.243-6-10.37a10.63 10.63 0 0 1 2.19-6.9c.267-.331.554-.645.86-.94l-8.55 2a4.62 4.62 0 0 0-3.46 5.54l7.08 30.59a4.62 4.62 0 0 0 5.53 3.46l3.5-.84-.27-.07A33.76 33.76 0 0 1 41.31 72L45 63.84a16.3 16.3 0 0 0 10.4 3.66c4 0 6-1.43 6-4.27a5.26 5.26 0 0 0-1.83-4.12zm19.34 4.11l-7.08-30.59a4.62 4.62 0 0 0-5.53-3.46l-5.15 1.19c.593.093 1.18.203 1.76.33a28.13 28.13 0 0 1 6.65 2.39l-3 8c-2.24-1.92-5.37-2.88-9.37-2.88-3.587 0-5.383 1.427-5.39 4.28a3.86 3.86 0 0 0 1.77 3 36.82 36.82 0 0 0 7.56 3.66 23.64 23.64 0 0 1 6.39 3.55c.74.59 1.41 1.26 2 2a12.35 12.35 0 0 1 2.55 7.85 11.85 11.85 0 0 1-2.45 7.58l5.83-1.35a4.61 4.61 0 0 0 3.46-5.55z" fill="#fff"/><path d="M23.42 9A16.34 16.34 0 0 0 13 12.63L9.33 4.44a33.83 33.83 0 0 1 6.8-2.93l.27-.07-3.51-.81A4.63 4.63 0 0 0 7.34 4.1L.25 34.76a4.63 4.63 0 0 0 3.47 5.55l8.56 2a10.22 10.22 0 0 1-.86-.95 10.66 10.66 0 0 1-2.25-6.9c0-4.133 2-7.597 6-10.39a28.38 28.38 0 0 1 5.37-2.88 27.61 27.61 0 0 0 7.06-3.79 5.27 5.27 0 0 0 1.81-4.12C29.43 10.4 27.43 9 23.42 9z" fill="url(#a)" transform="translate(32 75)"/><path d="M43.53 7.7l-5.84-1.35A11.87 11.87 0 0 1 40.15 14a12.37 12.37 0 0 1-2.56 7.87 12.71 12.71 0 0 1-2 2 23.69 23.69 0 0 1-6.41 3.56A36.89 36.89 0 0 0 21.65 31a3.87 3.87 0 0 0-1.78 3c0 2.853 1.8 4.283 5.4 4.29 4 0 7.15-1 9.39-2.89l3 8A28.19 28.19 0 0 1 31 45.85c-.58.127-1.167.237-1.76.33l5.16 1.19a4.63 4.63 0 0 0 5.55-3.46L47 13.25a4.62 4.62 0 0 0-3.47-5.55z" fill="url(#b)" transform="translate(32 75)"/><path d="M95.5 62h1.72l4.24 10.94L105.68 62h1.72v12.46h-1.17V63.68L102 74.46h-1.1l-4.2-10.78v10.78h-1.2zm21.35 0h1.3L123 74.46h-1.29l-1.49-3.88h-5.58l-1.48 3.88h-1.25zM115 69.57h4.82l-2.37-6.4zm23 4.89h-.84l-.16-2.27a4.42 4.42 0 0 1-4.24 2.53c-3.86 0-5.78-3.09-5.78-6.5s1.92-6.5 5.78-6.5a4.82 4.82 0 0 1 5.12 4.14h-1.17a3.84 3.84 0 0 0-3.95-3.13c-3.24 0-4.62 2.76-4.62 5.49s1.37 5.49 4.62 5.49c2.71 0 4.29-1.94 4.24-4.58h-4.17v-1H138zM147.25 62h1.3l4.81 12.47h-1.25l-1.49-3.88H145l-1.48 3.88h-1.25zm-1.85 7.58h4.82l-2.37-6.4zM157.31 62h8.82v1l-8.07 10.41h8.24v1h-9.54v-1L164.83 63h-7.52zm13.97 0h1.17v12.46h-1.17zm7.14 0h1.3l7.14 10.55V62h1.17v12.46h-1.3l-7.14-10.55v10.55h-1.17zM194 62h8.46v1h-7.3v4.51H202v1h-6.83v4.93h7.38v1H194z" fill="#fff"/></g></svg>