<svg height="126" width="142" xmlns="http://www.w3.org/2000/svg"><path d="M137.183 71.77c-.741 2.135-2.408 3.781-5.65 3.781-3.335 0-6.022-2.358-6.16-5.65h16.488c.046-.089.139-.8.139-1.646C142 61.404 137.924 57 130.977 57 125.28 57 120 61.538 120 68.389 120 75.729 125.419 80 131.532 80c5.419 0 8.986-3.07 10.19-6.851zM126 66c.184-2.408 2.117-5 5.478-5 3.681 0 5.43 2.36 5.522 5zm-13.652-15h-4.788v3.297c0 1.942-1.05 3.433-3.42 3.433H103v4.653h4.104V73.45c0 4.11 2.554 6.55 6.658 6.55 1.915 0 2.919-.361 3.238-.497v-4.337c-.228.046-1.095.181-1.824.181-1.961 0-2.828-.813-2.828-2.755V62.383h4.607V57.73h-4.607zm-24.02 25C86.172 76 85 74.581 85 73.02c0-1.891 1.36-2.838 3.046-3.121L94 69v1.04c0 4.494-2.625 5.96-5.672 5.96zM79 73.46c0 3.426 2.944 6.54 7.71 6.54 3.692 0 5.935-1.78 7.01-3.425 0 1.735.187 2.624.233 2.757H99c-.047-.222-.28-1.512-.28-3.47V65.098c0-4.316-2.664-8.097-9.673-8.097-5.607 0-9.159 3.337-9.58 7.074l4.954 1.067c.233-2.18 1.822-3.915 4.673-3.915 2.99 0 4.299 1.468 4.299 3.292 0 .756-.374 1.38-1.683 1.557l-5.84.846c-3.88.534-6.87 2.669-6.87 6.54zM77 57h-5.557l-5.738 15.72L59.829 57H54l9.018 22H68.3zm-33-7.477A3.472 3.472 0 0 0 47.477 53C49.424 53 51 51.47 51 49.523S49.424 46 47.477 46C45.577 46 44 47.576 44 49.523zM45 79h5V57h-5zm-5-21.867A7.766 7.766 0 0 0 38.586 57c-2.919 0-5.382 1.383-6.432 3.749v-3.482H27V79h5.292V68.647c0-4.061 1.87-6.381 5.975-6.381.547 0 1.14.044 1.733.134zm-27.63 9.365c6.397 0 10.63-4.107 10.63-9.749C23 51.152 18.767 47 12.37 47H0v32h5.644V66.498zM6 62V52h5.567C14.952 52 17 53.955 17 57.046 17 60.09 14.952 62 11.567 62zm99.183-36.588c-.741 2.228-2.409 3.946-5.65 3.946-3.335 0-6.021-2.46-6.16-5.895h16.488c.046-.094.139-.836.139-1.718C110 14.595 105.924 10 98.977 10 93.28 10 88 14.735 88 21.884 88 29.544 93.419 34 99.533 34c5.419 0 8.985-3.203 10.189-7.149zM94 20c.184-2.407 2.117-5 5.477-5 3.682 0 5.43 2.361 5.523 5zm-25.642-.036c.092-2.826 1.71-5.013 4.665-5.013 3.372 0 4.62 2.187 4.62 4.923V33H83V18.962c0-4.878-2.678-8.797-8.221-8.797-2.356 0-4.896.82-6.42 2.78V0H63v33h5.358zM59 6.26V1H32v5.26h10.688V34h5.577V6.26zm47 112.916c.28 2.553 2.805 6.824 9.397 6.824 5.797 0 8.603-3.807 8.603-7.242 0-3.342-2.245-5.942-6.546-6.87l-3.46-.697c-1.402-.279-2.29-1.16-2.29-2.367 0-1.393 1.356-2.6 3.273-2.6 3.038 0 4.02 2.09 4.207 3.39l4.582-1.3c-.374-2.229-2.431-6.314-8.79-6.314-4.722 0-8.368 3.342-8.368 7.288 0 3.11 2.104 5.71 6.124 6.592l3.366.743c1.824.371 2.665 1.3 2.665 2.507 0 1.392-1.168 2.6-3.413 2.6-2.898 0-4.441-1.811-4.628-3.854zm-21 0c.28 2.553 2.805 6.824 9.398 6.824 5.797 0 8.602-3.807 8.602-7.242 0-3.342-2.244-5.942-6.545-6.87l-3.46-.697c-1.403-.279-2.291-1.16-2.291-2.367 0-1.393 1.356-2.6 3.272-2.6 3.04 0 4.022 2.09 4.209 3.39l4.581-1.3c-.374-2.229-2.43-6.314-8.79-6.314-4.722 0-8.368 3.342-8.368 7.288 0 3.11 2.103 5.71 6.124 6.592l3.367.743c1.823.371 2.665 1.3 2.665 2.507 0 1.392-1.169 2.6-3.414 2.6-2.898 0-4.44-1.811-4.628-3.854zm-7.817-1.764c-.741 2.228-2.408 3.946-5.65 3.946-3.335 0-6.022-2.46-6.16-5.896H81.86c.047-.093.139-.835.139-1.717C82 106.595 77.924 102 70.977 102 65.28 102 60 106.735 60 113.884 60 121.544 65.42 126 71.532 126c5.42 0 8.986-3.203 10.19-7.15zM66 111c.184-2.408 2.117-5 5.477-5 3.682 0 5.431 2.36 5.523 5zm-8-8.86a7.44 7.44 0 0 0-1.414-.14c-2.92 0-5.383 1.446-6.432 3.919v-3.64H45V125h5.291v-10.823c0-4.246 1.87-6.672 5.976-6.672.547 0 1.14.047 1.733.14zm-27.63 9.967c6.397 0 10.63-4.235 10.63-10.053C41 96.282 36.767 92 30.37 92H18v33h5.644v-12.893zM24 107V97h5.567C32.95 97 35 98.955 35 102.046c0 3.045-2.049 4.954-5.433 4.954z" fill="#00c8dc" fill-rule="evenodd"/></svg>