<svg xmlns="http://www.w3.org/2000/svg" width="244" height="32"><circle fill="#E8E5D3" cx="15.246" cy="16.755" r="15.246"/><path fill="#998D50" d="M8.348 23.542c-1.162-.944-2.271-1.499-3.895-1.033.27.845.706 1.558 1.664 2.2 1.819 1.217 4.218 1.475 4.218 1.475s-.285-1.26-1.987-2.642zM19.49 15.077c-3.271.999-4.777 2.911-6.32 5.185 1.157.271 5.638.366 7.485-.164 4.409-1.268 7.206-5.642 7.206-5.642s-4.491-.568-8.371.621zM13.949 21.249c-2.529-.606-3.896.264-5.461 1.406 1.175.692 3.318 1.645 4.74 1.986 3 .716 6.649-.402 6.649-.402s-2.927-2.273-5.928-2.99zM22.543 8.929c-1.042 3.475-3.756 4.791-6.02 5.98.046-1.874.105-5.125.691-7.077C18.449 3.716 22.434 0 22.434 0s1.347 4.814.109 8.929zM14.848 15.146c-.408 2.304-1.965 3.376-3.017 4.328-.126-1.202-.064-3.538.165-4.832.487-2.732 2.608-5.404 2.608-5.404s.735 3.175.244 5.908zM10.578 18.932c-.326 1.712-1.338 2.198-2.384 2.842-.076-.908-.041-2.479.143-3.439.386-2.03 1.965-3.947 1.965-3.947s.666 2.514.276 4.544z"/><path d="M52.35 24.72a2.446 2.446 0 0 1 0-1.252h2.177l-2.095-5.034h-6.314l-1.688 4.055.408.979h1.497c.054.19.082.408.082.626s-.028.435-.082.626h-5.252a2.266 2.266 0 0 1-.083-.626c0-.246.027-.408.083-.626h1.197L49.357 7.11H50.5l6.886 16.358h1.388c.054.19.081.408.081.626s-.027.435-.081.626H52.35zm-2.422-12.329l-.6-2.069-.653 2.069-1.987 4.709h5.172l-1.932-4.709zM70.62 24.72c-.055-.191-.082-.408-.082-.626s.026-.408.082-.626h2.232V8.635H70.62a2.446 2.446 0 0 1 0-1.252h7.158c3.838 0 5.797 1.525 5.797 4.328 0 1.823-1.279 3.266-2.912 3.783l-1.143.271 1.143.11c2.449.409 3.837 1.987 3.837 4.138 0 3.21-2.749 4.707-6.75 4.707h-7.13zm8.3-9.445c.953-.435 1.769-1.741 1.769-3.456 0-2.123-1.115-3.184-3.292-3.184h-1.851v6.64h3.374zm-.979 8.22c2.395 0 3.647-1.169 3.647-3.403 0-2.258-1.307-3.592-4.11-3.592h-1.933v6.859c.409.053 1.852.136 2.396.136zm9.856-7.266c0-5.417 4.41-9.119 9.091-9.119 4.817 0 8.955 3.349 8.955 8.765 0 5.415-4.409 9.119-9.091 9.119-4.818-.001-8.955-3.348-8.955-8.765zm14.997-.354c0-4.708-2.504-7.403-5.906-7.403-3.456 0-6.042 2.638-6.042 7.757 0 4.708 2.505 7.402 5.906 7.402 3.456 0 6.042-2.64 6.042-7.756zm5.34.354c0-5.417 4.409-9.119 9.091-9.119 4.817 0 8.955 3.349 8.955 8.765 0 5.415-4.409 9.119-9.091 9.119-4.818-.001-8.955-3.348-8.955-8.765zm14.997-.354c0-4.708-2.504-7.403-5.906-7.403-3.458 0-6.042 2.638-6.042 7.757 0 4.708 2.503 7.402 5.906 7.402 3.456 0 6.042-2.64 6.042-7.756zm18.296 8.736v-.381l-6.533-7.54-.979-.272v6.94h2.013c.056.191.082.408.082.627 0 .218-.026.435-.082.626h-6.939a2.453 2.453 0 0 1 0-1.253h2.231V8.525h-2.231a2.445 2.445 0 0 1 0-1.252h6.939c.056.191.082.409.082.626 0 .218-.026.408-.082.626h-2.013v6.776h.979l5.96-5.879-.191-.897h-1.441a2.4 2.4 0 0 1-.08-.626 2.4 2.4 0 0 1 .08-.626h5.824c.054.218.082.409.082.626 0 .218-.028.408-.082.626h-1.334l-6.832 6.478 7.271 8.355h1.523a2.498 2.498 0 0 1 0 1.253h-4.247zm26.433 0a2.414 2.414 0 0 1 0-1.253h2.177l-2.098-5.034h-6.314l-1.687 4.054.408.98h1.498c.054.191.081.408.081.627 0 .218-.027.435-.081.626h-5.254a2.261 2.261 0 0 1-.079-.626c0-.246.023-.408.079-.627h1.197L164.865 7h1.144l6.886 16.358h1.388c.056.191.082.408.082.627 0 .218-.026.435-.082.626h-6.423zm-2.423-12.33l-.6-2.069-.652 2.069-1.985 4.709h5.171l-1.934-4.709zm11.219 12.33a2.261 2.261 0 0 1-.08-.626c0-.246.024-.408.08-.627h2.232V8.525h-2.232a2.4 2.4 0 0 1-.08-.626c0-.218.024-.435.08-.626h7.32c3.948 0 6.1 1.906 6.1 4.954 0 3.076-2.37 5.226-6.48 5.226h-2.013v5.906h2.477c.054.191.082.408.082.627 0 .218-.028.435-.082.626h-7.404zm4.927-8.412h2.013c2.232 0 3.566-1.359 3.566-3.973 0-2.559-1.225-3.701-3.566-3.701h-2.013v7.674zm20.226 8.412a2.412 2.412 0 0 1 0-1.253h2.179l-2.097-5.034h-6.314l-1.687 4.054.408.98h1.497c.052.191.08.408.08.627 0 .218-.028.435-.08.626h-5.255a2.339 2.339 0 0 1-.08-.626c0-.246.026-.408.08-.627h1.198L198.813 7h1.146l6.884 16.358h1.39c.055.191.08.408.08.627a2.3 2.3 0 0 1-.08.626h-6.424zm-2.421-12.33l-.602-2.069-.653 2.069-1.985 4.709h5.172l-1.932-4.709zm23.328 12.33v-.381l-5.146-6.915-2.039-.298v6.341h2.095c.056.191.082.408.082.627 0 .218-.026.435-.082.626h-7.023a2.423 2.423 0 0 1-.08-.626c0-.246.028-.408.08-.627h2.234V8.525h-2.234a2.583 2.583 0 0 1-.08-.626c0-.218.028-.435.08-.626h7.353c3.835 0 5.932 1.688 5.932 4.737 0 2.15-1.687 4.165-4.463 4.654a9.408 9.408 0 0 1 2.394 2.367l3.485 4.328h1.225c.054.191.082.408.082.627 0 .218-.028.435-.082.626h-3.813zm-4.353-8.683c1.469-.545 2.666-1.633 2.666-3.864 0-2.533-1.117-3.539-3.459-3.539h-2.039v7.403h2.832zm24.635-8.656H228.11l-.408 3.348h1.47l.707-1.361c.245-.489.354-.679.6-.734h3.728v14.833h-2.232a2.43 2.43 0 0 0-.079.627c0 .218.027.435.079.626h7.159c.054-.191.081-.408.081-.626a2.34 2.34 0 0 0-.081-.627H236.9V8.525h3.729c.245.055.354.245.598.734l.709 1.361h1.47l-.408-3.348z" fill="#231F20"/></svg>