<svg height="78" width="85" xmlns="http://www.w3.org/2000/svg"><mask id="a" fill="#fff"><path d="M0 0h84v78H0z" fill-rule="evenodd"/></mask><path d="M16.914 21.539c2.894-2.4 5.146-3.539 9.56-3.539 3.308 0 8.457 1.12 12.316 5.12 4.044-4 6.434-4.961 11.951-4.961C57.91 18.159 66 23.919 66 32.08V78H49.085V31.6c0-1.121-1.47-2.56-3.677-2.56-2.205 0-4.043.96-4.043 2.56V78H24.45V31.6c0-1.76-1.837-3.04-3.676-3.04-1.838 0-3.86 1.44-3.86 2.72V78H0V18.48h16.914zm59.907-10.554c-3.883 0-5.804-2.607-7.472-4.577 1.71-1.887 3.92-3.4 5.73-3.422 5.396-.072 6.181 2.832 6.267 4.33.058 1-.696 3.669-4.525 3.669zm-18.226-.032c-5.36.384-6.157-2.822-6.243-4.317-.058-.994.694-3.651 4.51-3.651 3.88 0 5.823 2.699 7.487 4.663-1.733 1.478-2.819 3.093-5.754 3.305zm18.03-9.673c-4.992 0-7.264 2.267-8.596 3.353-1.762-2.1-4.195-4.648-9.424-4.648-6.746 0-8.256 4.597-8.256 6.351 0 2.09 1.333 6.38 7.724 6.352 4.86-.02 7.293-2.209 8.626-3.294 1.76 2.084 4.226 4.59 9.395 4.59 6.746 0 8.255-4.596 8.255-6.352 0-2.09-1.332-6.352-7.723-6.352z" mask="url(#a)" transform="translate(.651 .015)" fill="#1a1919" fill-rule="evenodd"/></svg>