<svg height="102" width="365" xmlns="http://www.w3.org/2000/svg"><g fill="none"><path d="M346.6 101.347c-5.205 0-12.961-1.594-13.917-1.81v-7.751c2.55.53 9.135 1.629 13.812 1.629 5.416 0 8.923-4.607 8.923-12.784 0-9.669-1.592-14.768-9.135-14.768h-8.713v-7.755h7.649c8.607 0 9.03-8.818 9.03-13.067 0-8.395-2.656-11.794-7.966-11.794-4.675 0-9.99 1.169-13.07 1.806V27.3c1.17-.214 7.44-1.807 12.856-1.807 10.944 0 17.211 4.674 17.211 20.505 0 7.224-2.551 13.597-8.181 15.617 6.479.423 9.454 7.541 9.454 17.953 0 15.83-6.16 21.78-17.953 21.78zm-48.867-68.1c-9.56 0-12.75 6.484-12.75 29.854 0 22.842 3.19 30.491 12.75 30.491s12.748-7.649 12.748-30.491c0-23.37-3.187-29.854-12.748-29.854zm0 68.1c-17.53 0-22.205-12.749-22.205-38.776 0-24.968 4.676-37.078 22.205-37.078 17.53 0 22.202 12.11 22.202 37.078 0 26.027-4.672 38.776-22.202 38.776zm-52.91-68.204c-5.845 0-9.987.637-9.987.637V64.8h9.987c5.948 0 10.092-3.932 10.092-15.51 0-10.625-2.55-16.147-10.092-16.147zm-1.063 39.413h-8.924v28.045h-9.242V26.236s9.136-.743 17.954-.743c16.148 0 20.825 9.985 20.825 23.053 0 16.15-5.527 24.01-20.613 24.01zm-48.017-6.48v34.525h-9.562V66.076l-19.015-39.84h10.197l14.023 30.065 14.024-30.065h9.666zm-49.58-31.764v66.289h-9.242V34.312H120.56v-8.076h41.963v8.076z" fill="#000"/><path d="M76.031 69.915c-1.501.442-2.697.595-4.262.595-12.84 0-31.7-44.87-31.7-59.804 0-5.501 1.306-7.335 3.142-8.906C27.494 3.632 8.631 9.397 2.604 16.732 1.294 18.567.509 21.45.509 25.115c0 23.317 24.887 76.234 42.44 76.234 8.12 0 21.817-13.36 33.082-31.434M67.835.227c16.243 0 32.488 2.62 32.488 11.788 0 18.602-11.789 41.132-17.815 41.132-10.74 0-24.101-29.864-24.101-44.798 0-6.811 2.62-8.122 9.428-8.122" fill="#ff8700"/></g></svg>