<?xml version="1.0" encoding="utf-8"?>
<!-- Generator: Adobe Illustrator 21.0.0, SVG Export Plug-In . SVG Version: 6.00 Build 0)  -->
<svg version="1.1" xmlns="http://www.w3.org/2000/svg" xmlns:xlink="http://www.w3.org/1999/xlink" id="bozboz-logo" viewBox="0 0 396.864 100" width="248" height="68">
      <path  d="M108.54 28.417h20.316c8.221 0 13.788 2.661 13.788 10.702 0 4.232-2.12 7.194-5.868 9.009 5.261 1.511 7.919 5.562 7.919 10.942 0 8.768-7.436 12.518-15.235 12.518h-20.92V28.417zm9.491 17.475h9.614c3.325 0 5.806-1.513 5.806-5.142 0-4.11-3.145-4.957-6.53-4.957h-8.89v10.099zm0 18.317h10.159c3.748 0 7.014-1.207 7.014-5.682 0-4.415-2.78-6.168-6.834-6.168h-10.339v11.85zM173.467 27.388c13.362 0 21.223 9.977 21.223 22.797 0 12.453-7.86 22.43-21.223 22.43s-21.223-9.977-21.223-22.43c0-12.82 7.86-22.797 21.223-22.797zm0 37.246c8.525 0 11.73-7.257 11.73-14.449 0-7.56-3.205-14.814-11.73-14.814-8.527 0-11.73 7.255-11.73 14.814-.001 7.192 3.203 14.449 11.73 14.449zM201.39 64.089l23.157-27.691h-21.342v-7.982h33.979v7.496l-23.157 27.693h23.76v7.982H201.39v-7.498zM246.365 28.417h20.314c8.225 0 13.786 2.661 13.786 10.702 0 4.232-2.114 7.194-5.864 9.009 5.261 1.511 7.921 5.562 7.921 10.942 0 8.768-7.438 12.518-15.237 12.518h-20.919V28.417zm9.493 17.475h9.614c3.325 0 5.803-1.513 5.803-5.142 0-4.11-3.145-4.957-6.53-4.957h-8.887v10.099zm0 18.317h10.159c3.748 0 7.012-1.207 7.012-5.682 0-4.415-2.78-6.168-6.832-6.168h-10.339v11.85zM311.292 27.388c13.36 0 21.221 9.977 21.221 22.797 0 12.453-7.861 22.43-21.221 22.43-13.362 0-21.223-9.977-21.223-22.43 0-12.82 7.86-22.797 21.223-22.797zm0 37.246c8.525 0 11.729-7.257 11.729-14.449 0-7.56-3.204-14.814-11.729-14.814-8.524 0-11.73 7.255-11.73 14.814 0 7.192 3.205 14.449 11.73 14.449zM339.215 64.089l23.157-27.691h-21.343v-7.982h33.978v7.496L351.85 63.605h23.762v7.982h-36.397v-7.498z"></path><g><path d="M39.978 22.421V34.02c0 .144.01.279.024.417a4.057 4.057 0 0 0-.024.415v4.659a3.523 3.523 0 0 0 3.521 3.523h7.769a3.524 3.524 0 0 0 3.519-3.42h.005a2.069 2.069 0 0 1 2.343-2.051v-.018h14.007a3.522 3.522 0 0 0 3.522-3.521V22.417a3.52 3.52 0 0 0-3.522-3.52H43.5a3.525 3.525 0 0 0-3.522 3.524z"></path><path d="M22.345 59.948h11.601c.142-.002.281-.01.415-.028.14.019.276.026.419.028h4.656a3.524 3.524 0 0 0 3.524-3.525V48.66a3.522 3.522 0 0 0-3.419-3.52v-.004a2.072 2.072 0 0 1-2.072-2.074c0-.091.009-.182.022-.267h-.022v-14.01a3.525 3.525 0 0 0-3.523-3.525l-11.599.002a3.52 3.52 0 0 0-3.524 3.523v27.638a3.523 3.523 0 0 0 3.522 3.525z"></path><path d="M59.873 77.579V65.98c0-.14-.009-.279-.025-.417.016-.138.025-.273.025-.415v-4.657a3.522 3.522 0 0 0-3.521-3.523h-7.764a3.519 3.519 0 0 0-3.519 3.418h-.008a2.072 2.072 0 0 1-2.073 2.073c-.089 0-.18-.01-.27-.02v.02H28.71a3.52 3.52 0 0 0-3.523 3.521l.001 11.599a3.52 3.52 0 0 0 3.522 3.523h27.639a3.52 3.52 0 0 0 3.524-3.523z"></path><path d="M77.506 40.052h-11.6c-.14 0-.278.012-.416.028a3.592 3.592 0 0 0-.418-.028h-4.658a3.526 3.526 0 0 0-3.523 3.525l.002 7.766a3.52 3.52 0 0 0 3.415 3.519v.004a2.068 2.068 0 0 1 2.053 2.341h.019v14.008a3.523 3.523 0 0 0 3.524 3.523h11.602a3.52 3.52 0 0 0 3.521-3.523V43.577a3.521 3.521 0 0 0-3.521-3.525z"></path></g>
    </svg>