<?xml version="1.0" encoding="utf-8"?>
<!-- Generator: Adobe Illustrator 21.1.0, SVG Export Plug-In . SVG Version: 6.00 Build 0)  -->
<svg version="1.1" id="Layer_1" xmlns="http://www.w3.org/2000/svg" xmlns:xlink="http://www.w3.org/1999/xlink" x="0px" y="0px"
	 width="312px" height="336px" viewBox="0 0 312 336" enable-background="new 0 0 312 336" xml:space="preserve">
<g>
	<defs>
		<rect id="SVGID_1_" width="312" height="336"/>
	</defs>
	<clipPath id="SVGID_2_">
		<use xlink:href="#SVGID_1_"  overflow="visible"/>
	</clipPath>
	<path clip-path="url(#SVGID_2_)" fill="#1D1D1B" d="M50.9,55.2l-27.8-3.1c-5.5-0.9-7.9-3.9-8.9-6.2c-2.1-4.5-1-10.4,0.8-15.6
		C4.5,41,2,53.5,2,53.7c-3.1,12.2-2.5,21.5,1.7,28c4.5,6.8,11.5,8,11.8,8l25.8,2.5C41.1,74.7,47.2,61.5,50.9,55.2 M234.8,80.1
		l-18,26.4c-0.5,0.7-1.2,1.2-2.1,1.2c-0.8,0.1-1.7-0.2-2.3-0.8l-14-13.5l-40.1,44.6c-0.6,0.6-1.3,1-2.1,1c-0.1,0-0.1,0-0.2,0
		c-0.1,0-0.1,0-0.2,0c-0.8,0-1.6-0.3-2.1-1l-40.1-44.7L98.9,107c-0.6,0.6-1.4,0.8-2.3,0.7c-0.8-0.1-1.6-0.5-2.1-1.2l-18-26.4
		c-0.9-1.3-0.6-3.1,0.8-4c1.3-0.9,3.1-0.6,4,0.8l16.1,23.7l14.4-13.3c0.6-0.5,1.3-0.8,2.1-0.8c0.8,0,1.5,0.4,2,0.9l40.1,44.7
		l40.1-44.7c0.5-0.6,1.3-0.9,2-1c0.8,0,1.5,0.3,2.1,0.8l13.7,13.3l16.1-23.6c0.9-1.3,2.7-1.6,4-0.8C235.4,77,235.7,78.8,234.8,80.1
		 M88.3,158.5c0.7-1.4,2.4-2,3.8-1.3c1.4,0.7,2,2.4,1.3,3.8c-2.3,4.7-0.3,10.3,4.4,12.6c2.3,1.1,4.8,1.2,7.2,0.4
		c2.4-0.8,4.3-2.5,5.4-4.8c0.7-1.4,2.4-2,3.8-1.3c1.4,0.7,2,2.4,1.3,3.8c-2.6,5.4-8,8.5-13.7,8.5c-2.2,0-4.5-0.5-6.6-1.5
		C87.8,175.1,84.7,166,88.3,158.5 M138.8,277.1l-9.1,9.1l-9.1-9.1l9.1-9.1L138.8,277.1z M173.5,277.1l9.1-9.1l9.1,9.1l-9.1,9.1
		L173.5,277.1z M217.7,178.8c-2.1,1-4.4,1.5-6.6,1.5c-5.6,0-11-3.1-13.7-8.5c-0.7-1.4-0.1-3.1,1.3-3.8c1.4-0.7,3.1-0.1,3.8,1.3
		c2.3,4.7,7.9,6.6,12.6,4.4c4.7-2.3,6.6-7.9,4.4-12.6c-0.7-1.4-0.1-3.1,1.3-3.8c1.4-0.7,3.1-0.1,3.8,1.3
		C228.4,166,225.2,175.1,217.7,178.8 M266.2,31.3l-36.5-3l9.5-8.6l-30-1.2l6-18.5l-43.5,17.6l-31.9,0L96.4,0l6,18.5l-30,1.2l9.5,8.6
		l-36.5,3l19.7,15.1l-12,17c-3.2,7-6.8,18-6.1,31.3c0.1,0.2,0.1,0.5,0.1,0.7c0,1.6-1.2,3-2.9,2.9h0c-0.1,0-0.2,0-0.3,0l-14.4-1.4
		L8,127.3l12.5-1.7l6.2,32l16.8-9.3l-16.9,39.2l15.7,0.2v26.6l16.8-11.6l-3.6,46.3l17.3,1.6l4.3,34.3l2.4-3.2l19.3-34.1
		c0.7-1.3,2.4-1.8,3.7-1.2c10.9,5.1,19.8,5.8,26.4,2.1c10.4-5.8,12.2-20.9,12.2-21.1c0.1-0.6,6.6-55-20-82.8
		c-11.8-12.4-28.7-17.8-50-16c-1.6,0.1-3-1-3.1-2.6c-0.1-1.6,1-3,2.6-3.1c23.2-1.9,41.6,4.1,54.7,17.8
		c28.5,29.8,21.9,85.1,21.6,87.4c-0.1,0.7-2.1,18.1-15,25.4c-7.8,4.4-17.6,4.1-29.2-0.8l-14.3,25.3l11.7,40.5l16.2-12.6l16.2,29.9
		l13.1-32.3l22.5-0.1l11.1,32.4l16.2-29.9l16.2,12.6l11.9-40.9l-14.1-24.9c-11.6,4.9-21.5,5.2-29.2,0.8c-13-7.3-15-24.7-15-25.5
		c-0.3-2.3-6.9-57.6,21.6-87.4c13.1-13.7,31.5-19.7,54.7-17.8c1.6,0.1,2.8,1.5,2.6,3.1c-0.1,1.6-1.5,2.8-3.1,2.6
		c-21.4-1.7-38.2,3.6-50,16c-26.6,27.8-20.1,82.2-20,82.7c0,0.2,1.8,15.3,12.2,21.1c6.6,3.7,15.5,3,26.4-2.1c1.4-0.6,3-0.1,3.7,1.2
		l20.5,36.2l0.8,1.1l4.3-34.3l17.3-1.6l-3.6-46.3l16.8,11.6v-26.6l15.7-0.2l-16.9-39.2l16.8,9.3l6.2-32l12.5,1.7l-21.5-30.5
		L268,98.2c-0.1,0-0.2,0-0.3,0c-0.7,0-1.5-0.3-2-0.8c-0.6-0.6-0.9-1.4-0.9-2.2c0.7-12.8-2.4-23.5-5.6-30.6l-12.9-18.2L266.2,31.3z
		 M310.1,53.9c-0.1-0.3-2.6-12.8-13-23.6c1.8,5.2,2.8,11.2,0.8,15.6c-1.1,2.3-3.5,5.3-8.8,6.2l-28,3.1c3.7,6.3,9.9,19.5,9.6,36.9
		l26-2.5c0.1,0,7.1-1.2,11.6-8C312.6,75.2,313.1,65.9,310.1,53.9"/>
</g>
</svg>
