<svg xmlns="http://www.w3.org/2000/svg" width="175" height="175" viewBox="112.5 112.5 175 175"><title>goodscary</title><path fill="#C50000" d="M112.5 130c0-9.669 7.831-17.5 17.5-17.5h140c9.669 0 17.5 7.831 17.5 17.5v140c0 9.669-7.831 17.5-17.5 17.5H130c-9.669 0-17.5-7.831-17.5-17.5V130zm42.727 43.514v17.019c0 3.426-1.619 5.045-5.04 5.045h-2.477c-3.421 0-5.031-1.619-5.031-5.045V146.8c0-3.43 1.61-5.044 5.031-5.044h2.284c3.426 0 5.04 1.619 5.04 5.04v9.318h7.416v-9.139c0-8.081-3.99-12.171-12.171-12.171h-2.853c-8.269 0-12.359 4.091-12.359 12.364v42.98c0 8.269 4.086 12.359 12.359 12.359h2.853c8.269 0 12.363-4.086 12.363-12.359v-23.581h-13.593v6.938h6.182l-.004.009zm41.649 16.205v-42.98c0-8.269-4.09-12.364-12.363-12.364h-2.853c-8.269 0-12.364 4.091-12.364 12.364v42.98c0 8.269 4.09 12.359 12.364 12.359h2.853c8.268 0 12.363-4.086 12.363-12.359zm-7.612-42.919v43.737c0 3.421-1.619 5.04-5.031 5.04h-2.288c-3.421 0-5.04-1.619-5.04-5.045V146.8c0-3.43 1.619-5.044 5.044-5.044h2.284c3.421 0 5.04 1.619 5.04 5.04l-.009.004zm42.035 43.356v-42.98c0-8.269-4.091-12.364-12.363-12.364h-2.854c-8.269 0-12.363 4.091-12.363 12.364v42.98c0 8.269 4.091 12.359 12.363 12.359h2.854c8.267.001 12.363-4.085 12.363-12.359zm-7.612-43.794V190.1c0 3.421-1.619 5.04-5.031 5.04h-2.288c-3.413 0-5.031-1.619-5.031-5.045v-43.732c0-3.43 1.618-5.044 5.031-5.044h2.288c3.421 0 5.04 1.619 5.04 5.04l-.009.003zm14.647 55.585h12.557c9.975 0 14.734-4.756 14.734-14.744v-37.078c0-9.988-4.756-14.744-14.744-14.744h-12.547v66.566zm7.612-59.623h4.559c5.136 0 7.512 2.568 7.512 7.7v37.275c0 5.136-2.371 7.7-7.507 7.7h-4.572v-52.671l.008-.004zM151 236.619l-7.569-5.469c-1.802-1.326-2.817-2.494-2.817-5.229v-6.869c0-2.812 1.326-4.143 4.139-4.143h1.094c2.813 0 4.139 1.33 4.139 4.139v10.076h6.09v-9.844c0-6.638-3.281-9.993-9.993-9.993h-1.558c-6.79 0-10.15 3.355-10.15 10.149V226c0 4.45 1.172 7.263 5.232 10.15l7.656 5.548c1.794 1.33 2.73 2.503 2.73 5.237v8.189c0 2.812-1.326 4.143-4.139 4.143h-1.251c-2.809 0-4.139-1.33-4.139-4.139v-11.711h-6.09v11.479c0 6.642 3.281 9.997 9.997 9.997h1.719c6.79 0 10.15-3.355 10.15-10.15v-7.963c0-4.689-1.251-7.262-5.232-10.158l-.008-.003zm26.862 6.794v11.638c0 2.812-1.325 4.139-4.139 4.139h-1.715c-2.813 0-4.139-1.33-4.139-4.143v-35.919c0-2.818 1.325-4.144 4.139-4.144h1.562c2.813 0 4.144 1.325 4.144 4.139v9.997h6.099v-9.844c0-6.711-3.281-9.992-10.001-9.992h-2.03c-6.794 0-10.15 3.355-10.15 10.149v35.307c0 6.79 3.355 10.15 10.15 10.15h2.03c6.794 0 10.149-3.36 10.149-10.15v-11.332h-6.09l-.009.005zm25.931-33.819h-7.971l-8.422 54.832h6.016l1.247-9.135h10.076l1.325 9.135h6.169l-8.431-54.818-.009-.014zm-4.068 9.844l4.217 30.223h-8.491l4.287-30.218-.013-.005zm33.74 19.215c3.123-1.251 4.838-3.675 4.838-8.593v-10.15c0-6.789-3.355-10.149-10.149-10.149h-11.638v54.665h6.247v-22.96h4.607c3.281 0 4.76 1.487 4.76 4.769v18.191h6.247v-18.432c0-4.213-1.486-6.4-4.917-7.337l.005-.004zm-1.409-19.057v11.712c0 3.124-1.487 4.606-4.606 4.606h-4.682v-20.461h5.149c2.813 0 4.139 1.325 4.139 4.138v.005zm21.008 16.944l-5.543-26.788h-6.396l8.828 35.919v18.747h6.248v-18.822l8.824-35.844h-6.169l-5.774 26.788h-.018z"/></svg>