<?xml version="1.0" encoding="utf-8"?>
<!-- Generator: Adobe Illustrator 16.0.4, SVG Export Plug-In . SVG Version: 6.00 Build 0)  -->
<!DOCTYPE svg PUBLIC "-//W3C//DTD SVG 1.1//EN" "http://www.w3.org/Graphics/SVG/1.1/DTD/svg11.dtd">
<svg version="1.1" id="Layer_1" xmlns="http://www.w3.org/2000/svg" xmlns:xlink="http://www.w3.org/1999/xlink" x="0px" y="0px"
	 width="175px" height="175px" viewBox="112.5 112.5 175 175" enable-background="new 112.5 112.5 175 175" xml:space="preserve">
<title>goodscary</title>
<g>
	<path fill="#C50000" d="M112.5,130c0-9.669,7.831-17.5,17.5-17.5h140c9.669,0,17.5,7.831,17.5,17.5v140
		c0,9.669-7.831,17.5-17.5,17.5H130c-9.669,0-17.5-7.831-17.5-17.5V130z M155.227,173.514v17.019c0,3.426-1.619,5.045-5.04,5.045
		h-2.477c-3.421,0-5.031-1.619-5.031-5.045V146.8c0-3.43,1.61-5.044,5.031-5.044h2.284c3.426,0,5.04,1.619,5.04,5.04v9.318h7.416
		v-9.139c0-8.081-3.99-12.171-12.171-12.171h-2.853c-8.269,0-12.359,4.091-12.359,12.364v42.98c0,8.269,4.086,12.359,12.359,12.359
		h2.853c8.269,0,12.363-4.086,12.363-12.359v-23.581h-13.593v6.938h6.182L155.227,173.514z M196.876,189.719v-42.98
		c0-8.269-4.09-12.364-12.363-12.364h-2.853c-8.269,0-12.364,4.091-12.364,12.364v42.98c0,8.269,4.09,12.359,12.364,12.359h2.853
		C192.781,202.078,196.876,197.992,196.876,189.719z M189.264,146.8v43.737c0,3.421-1.619,5.04-5.031,5.04h-2.288
		c-3.421,0-5.04-1.619-5.04-5.045V146.8c0-3.43,1.619-5.044,5.044-5.044h2.284c3.421,0,5.04,1.619,5.04,5.04L189.264,146.8z
		 M231.299,190.156v-42.98c0-8.269-4.091-12.364-12.363-12.364h-2.854c-8.269,0-12.363,4.091-12.363,12.364v42.98
		c0,8.269,4.091,12.359,12.363,12.359h2.854C227.203,202.516,231.299,198.43,231.299,190.156z M223.687,146.362V190.1
		c0,3.421-1.619,5.04-5.031,5.04h-2.288c-3.413,0-5.031-1.619-5.031-5.045v-43.732c0-3.43,1.618-5.044,5.031-5.044h2.288
		c3.421,0,5.04,1.619,5.04,5.04L223.687,146.362z M238.334,201.947h12.557c9.975,0,14.734-4.756,14.734-14.744v-37.078
		c0-9.988-4.756-14.744-14.744-14.744h-12.547V201.947z M245.946,142.324h4.559c5.136,0,7.512,2.568,7.512,7.7v37.275
		c0,5.136-2.371,7.7-7.507,7.7h-4.572v-52.671L245.946,142.324z M151,236.619l-7.569-5.469c-1.802-1.326-2.817-2.494-2.817-5.229
		v-6.869c0-2.812,1.326-4.143,4.139-4.143h1.094c2.813,0,4.139,1.33,4.139,4.139v10.076h6.09v-9.844
		c0-6.638-3.281-9.993-9.993-9.993h-1.558c-6.79,0-10.15,3.355-10.15,10.149V226c0,4.45,1.172,7.263,5.232,10.15l7.656,5.548
		c1.794,1.33,2.73,2.503,2.73,5.237v8.189c0,2.812-1.326,4.143-4.139,4.143h-1.251c-2.809,0-4.139-1.33-4.139-4.139v-11.711h-6.09
		v11.479c0,6.642,3.281,9.997,9.997,9.997h1.719c6.79,0,10.15-3.355,10.15-10.15v-7.963c0-4.689-1.251-7.262-5.232-10.158
		L151,236.619z M177.862,243.413v11.638c0,2.812-1.325,4.139-4.139,4.139h-1.715c-2.813,0-4.139-1.33-4.139-4.143v-35.919
		c0-2.818,1.325-4.144,4.139-4.144h1.562c2.813,0,4.144,1.325,4.144,4.139v9.997h6.099v-9.844c0-6.711-3.281-9.992-10.001-9.992
		h-2.03c-6.794,0-10.15,3.355-10.15,10.149v35.307c0,6.79,3.355,10.15,10.15,10.15h2.03c6.794,0,10.149-3.36,10.149-10.15v-11.332
		h-6.09L177.862,243.413z M203.793,209.594h-7.971l-8.422,54.832h6.016l1.247-9.135h10.076l1.325,9.135h6.169l-8.431-54.818
		L203.793,209.594z M199.725,219.438l4.217,30.223h-8.491l4.287-30.218L199.725,219.438z M233.465,238.653
		c3.123-1.251,4.838-3.675,4.838-8.593v-10.15c0-6.789-3.355-10.149-10.149-10.149h-11.638v54.665h6.247v-22.96h4.607
		c3.281,0,4.76,1.487,4.76,4.769v18.191h6.247v-18.432c0-4.213-1.486-6.4-4.917-7.337L233.465,238.653z M232.056,219.596v11.712
		c0,3.124-1.487,4.606-4.606,4.606h-4.682v-20.461h5.149c2.813,0,4.139,1.325,4.139,4.138V219.596z M253.064,236.54l-5.543-26.788
		h-6.396l8.828,35.919v18.747h6.248v-18.822l8.824-35.844h-6.169l-5.774,26.788H253.064z"/>
</g>
</svg>
