<svg xmlns="http://www.w3.org/2000/svg" xmlns:xlink="http://www.w3.org/1999/xlink" width="312" height="336"><defs><path id="a" d="M0 0h312v336H0z"/></defs><clipPath id="b"><use xlink:href="#a" overflow="visible"/></clipPath><path clip-path="url(#b)" fill="#1D1D1B" d="M50.9 55.2l-27.8-3.1c-5.5-.9-7.9-3.9-8.9-6.2-2.1-4.5-1-10.4.8-15.6C4.5 41 2 53.5 2 53.7c-3.1 12.2-2.5 21.5 1.7 28 4.5 6.8 11.5 8 11.8 8l25.8 2.5c-.2-17.5 5.9-30.7 9.6-37m183.9 24.9l-18 26.4c-.5.7-1.2 1.2-2.1 1.2-.8.1-1.7-.2-2.3-.8l-14-13.5-40.1 44.6c-.6.6-1.3 1-2.1 1h-.4c-.8 0-1.6-.3-2.1-1l-40.1-44.7L98.9 107c-.6.6-1.4.8-2.3.7-.8-.1-1.6-.5-2.1-1.2l-18-26.4c-.9-1.3-.6-3.1.8-4 1.3-.9 3.1-.6 4 .8l16.1 23.7 14.4-13.3c.6-.5 1.3-.8 2.1-.8s1.5.4 2 .9l40.1 44.7 40.1-44.7c.5-.6 1.3-.9 2-1 .8 0 1.5.3 2.1.8l13.7 13.3L230 76.9c.9-1.3 2.7-1.6 4-.8 1.4.9 1.7 2.7.8 4M88.3 158.5c.7-1.4 2.4-2 3.8-1.3s2 2.4 1.3 3.8c-2.3 4.7-.3 10.3 4.4 12.6 2.3 1.1 4.8 1.2 7.2.4 2.4-.8 4.3-2.5 5.4-4.8.7-1.4 2.4-2 3.8-1.3s2 2.4 1.3 3.8c-2.6 5.4-8 8.5-13.7 8.5-2.2 0-4.5-.5-6.6-1.5-7.4-3.6-10.5-12.7-6.9-20.2m50.5 118.6l-9.1 9.1-9.1-9.1 9.1-9.1 9.1 9.1zm34.7 0l9.1-9.1 9.1 9.1-9.1 9.1-9.1-9.1zm44.2-98.3c-2.1 1-4.4 1.5-6.6 1.5-5.6 0-11-3.1-13.7-8.5-.7-1.4-.1-3.1 1.3-3.8 1.4-.7 3.1-.1 3.8 1.3 2.3 4.7 7.9 6.6 12.6 4.4 4.7-2.3 6.6-7.9 4.4-12.6-.7-1.4-.1-3.1 1.3-3.8 1.4-.7 3.1-.1 3.8 1.3 3.8 7.4.6 16.5-6.9 20.2m48.5-147.5l-36.5-3 9.5-8.6-30-1.2 6-18.5-43.5 17.6h-31.9L96.4 0l6 18.5-30 1.2 9.5 8.6-36.5 3 19.7 15.1-12 17c-3.2 7-6.8 18-6.1 31.3.1.2.1.5.1.7 0 1.6-1.2 3-2.9 2.9h-.3l-14.4-1.4L8 127.3l12.5-1.7 6.2 32 16.8-9.3-16.9 39.2 15.7.2v26.6l16.8-11.6-3.6 46.3 17.3 1.6 4.3 34.3 2.4-3.2 19.3-34.1c.7-1.3 2.4-1.8 3.7-1.2 10.9 5.1 19.8 5.8 26.4 2.1 10.4-5.8 12.2-20.9 12.2-21.1.1-.6 6.6-55-20-82.8-11.8-12.4-28.7-17.8-50-16-1.6.1-3-1-3.1-2.6-.1-1.6 1-3 2.6-3.1 23.2-1.9 41.6 4.1 54.7 17.8 28.5 29.8 21.9 85.1 21.6 87.4-.1.7-2.1 18.1-15 25.4-7.8 4.4-17.6 4.1-29.2-.8L88.4 278l11.7 40.5 16.2-12.6 16.2 29.9 13.1-32.3 22.5-.1 11.1 32.4 16.2-29.9 16.2 12.6 11.9-40.9-14.1-24.9c-11.6 4.9-21.5 5.2-29.2.8-13-7.3-15-24.7-15-25.5-.3-2.3-6.9-57.6 21.6-87.4 13.1-13.7 31.5-19.7 54.7-17.8 1.6.1 2.8 1.5 2.6 3.1-.1 1.6-1.5 2.8-3.1 2.6-21.4-1.7-38.2 3.6-50 16-26.6 27.8-20.1 82.2-20 82.7 0 .2 1.8 15.3 12.2 21.1 6.6 3.7 15.5 3 26.4-2.1 1.4-.6 3-.1 3.7 1.2l20.5 36.2.8 1.1 4.3-34.3 17.3-1.6-3.6-46.3 16.8 11.6v-26.6l15.7-.2-16.9-39.2 16.8 9.3 6.2-32 12.5 1.7-21.5-30.5-14.2 1.6h-.3c-.7 0-1.5-.3-2-.8-.6-.6-.9-1.4-.9-2.2.7-12.8-2.4-23.5-5.6-30.6l-12.9-18.2 19.9-15.1zm43.9 22.6c-.1-.3-2.6-12.8-13-23.6 1.8 5.2 2.8 11.2.8 15.6-1.1 2.3-3.5 5.3-8.8 6.2l-28 3.1c3.7 6.3 9.9 19.5 9.6 36.9l26-2.5c.1 0 7.1-1.2 11.6-8 4.3-6.4 4.8-15.7 1.8-27.7"/></svg>