<?xml version="1.0" standalone="no"?>
<!DOCTYPE svg PUBLIC "-//W3C//DTD SVG 1.1//EN" "http://www.w3.org/Graphics/SVG/1.1/DTD/svg11.dtd" >
<svg xmlns="http://www.w3.org/2000/svg">
<metadata></metadata>
<defs>
<font id="grota_sans_mediummedium" horiz-adv-x="550" >
<font-face units-per-em="1000" ascent="750" descent="-250" />
<missing-glyph horiz-adv-x="191" />
<glyph unicode="&#xfb01;" horiz-adv-x="567" d="M423 496h85v-496h-85v496zM401 637q0 26 18 44t44 18t44.5 -18t18.5 -44q0 -25 -18.5 -42.5t-44.5 -17.5t-44 17.5t-18 42.5zM333 729v-76q-28 7 -56 7q-53 0 -77 -23t-24 -69v-72h135v-74h-135v-422h-85v422h-71v74h71v75q0 80 40.5 123t135.5 43q16 0 32.5 -2t24.5 -4z " />
<glyph unicode="&#xfb02;" horiz-adv-x="553" d="M391 734h85v-636q1 -28 28 -28l22 4v-70q-17 -9 -53 -9q-82 0 -82 81v658zM333 729v-76q-28 7 -56 7q-53 0 -77 -23t-24 -69v-72h135v-74h-135v-422h-85v422h-71v74h71v75q0 80 40.5 123t135.5 43q16 0 32.5 -2t24.5 -4z" />
<glyph horiz-adv-x="0" />
<glyph horiz-adv-x="333" />
<glyph unicode=" "  horiz-adv-x="191" />
<glyph unicode="&#x09;" horiz-adv-x="191" />
<glyph unicode="&#xa0;" horiz-adv-x="191" />
<glyph unicode="!" horiz-adv-x="202" d="M56 732h92l-19 -563h-56zM46 48q0 23 15.5 39t37.5 16q23 0 38.5 -16t15.5 -39t-15.5 -39t-38.5 -16q-22 0 -37.5 16t-15.5 39z" />
<glyph unicode="&#x22;" horiz-adv-x="311" d="M43 841h77l-15 -277h-50zM193 841h77l-16 -277h-49z" />
<glyph unicode="#" horiz-adv-x="735" d="M331 724h87l-80 -209h168l80 209h87l-80 -209h114v-66h-140l-68 -177h152v-68h-178l-78 -204h-86l78 204h-169l-78 -204h-87l78 204h-101v68h127l68 177h-141v66h167zM312 449l-68 -177h169l67 177h-168z" />
<glyph unicode="$" horiz-adv-x="543" d="M231 780h86v-50q91 -12 138 -68t47 -141l-89 -14q0 55 -26.5 92t-78.5 48v-246q35 -13 57.5 -23t51.5 -29.5t46 -40.5t29 -54t12 -73q0 -74 -45 -125t-142 -63v-55h-86v54q-100 8 -149.5 64t-49.5 131l87 14q0 -49 29.5 -84.5t90.5 -42.5v261q-45 16 -72 29t-59.5 36.5 t-48 59t-15.5 82.5q0 70 47 124.5t140 64.5v49zM408 190q0 44 -26 71.5t-74 47.5v-234q54 9 77 41t23 74zM140 541q0 -41 25.5 -67t73.5 -46v221q-50 -8 -74.5 -38t-24.5 -70z" />
<glyph unicode="%" horiz-adv-x="620" d="M158 733q65 0 92.5 -41.5t27.5 -133.5q0 -91 -27.5 -130.5t-92.5 -39.5q-62 0 -90.5 40.5t-28.5 129.5q0 92 27.5 133.5t91.5 41.5zM158 445q30 0 43 26.5t13 86.5q0 63 -13 90.5t-43 27.5t-42.5 -27.5t-12.5 -90.5q0 -113 55 -113zM44 0l449 724h88l-451 -724h-86z M459 49q30 0 43 26t13 86q0 63 -13 91t-43 28t-42.5 -28t-12.5 -91q0 -59 13 -85.5t42 -26.5zM459 -8q-62 0 -90.5 40t-28.5 129q0 93 27.5 134.5t91.5 41.5q65 0 92.5 -41.5t27.5 -134.5q0 -90 -27.5 -129.5t-92.5 -39.5z" />
<glyph unicode="&#x26;" horiz-adv-x="658" d="M300 733q81 0 124 -41.5t43 -104.5q0 -36 -17 -68.5t-44 -55.5t-47 -36.5t-40 -22.5l187 -230q50 84 50 192l82 -21q0 -147 -79 -245l82 -100h-95l-41 49q-78 -57 -192 -57q-139 0 -208.5 63.5t-69.5 148.5q0 49 17.5 90t46 68t49.5 41t43 24q-61 78 -61 153 q0 63 45.5 108t124.5 45zM313 74q77 0 137 39l-209 254q-16 -8 -31.5 -19t-35.5 -30t-32 -47.5t-12 -61.5q0 -53 44.5 -94t138.5 -41zM220 574q0 -50 51 -113q22 11 42.5 24.5t42 40.5t21.5 56t-19.5 50.5t-56.5 21.5q-40 0 -60.5 -23.5t-20.5 -56.5z" />
<glyph unicode="'" horiz-adv-x="162" d="M43 841h77l-15 -277h-50z" />
<glyph unicode="(" horiz-adv-x="337" d="M271 869l58 -58q-8 -5 -21.5 -15t-47.5 -48.5t-59.5 -84t-47 -123.5t-21.5 -166t20.5 -166t49 -125.5t57.5 -82t49 -48.5l21 -15l-58 -58q-10 6 -25.5 18t-56 56.5t-71 96.5t-56 139.5t-25.5 184.5q0 96 24 182.5t58.5 141t69 95.5t58.5 59z" />
<glyph unicode=")" horiz-adv-x="338" d="M8 811l58 58q5 -3 13.5 -9.5t33 -28.5t46.5 -48.5t49 -69.5t46.5 -90.5t33 -113t13.5 -135.5q0 -97 -24 -183.5t-58.5 -141t-69.5 -95t-59 -58.5l-24 -17l-58 58q8 5 21.5 15t47.5 48t59.5 83.5t47 124t21.5 166.5q0 64 -11 123t-28 101.5t-38.5 79t-42.5 60.5t-38 41 t-28 25z" />
<glyph unicode="*" horiz-adv-x="620" d="M273 795h77l-19 -226l149 170l53 -54l-173 -146l226 16l-1 -76l-226 19l172 -147l-55 -55l-146 173l17 -225h-77l19 225l-149 -170l-53 55l172 146l-225 -17l1 77l225 -19l-171 148l55 54l146 -173z" />
<glyph unicode="+" horiz-adv-x="498" d="M210 594h86v-180h168v-78h-168v-185h-86v185h-176v78h176v180z" />
<glyph unicode="," horiz-adv-x="219" d="M39 63q0 29 20 49.5t48 20.5q29 0 49 -20.5t20 -49.5v-63q0 -133 -101 -133l-26 4v45q10 -3 27 -3q52 0 52 60v25q-10 -3 -21 -3q-29 0 -48.5 19.5t-19.5 48.5z" />
<glyph unicode="-" horiz-adv-x="516" d="M461 346v-77h-405v77h405z" />
<glyph unicode="." horiz-adv-x="214" d="M39 63q0 29 20 49.5t48 20.5q29 0 49 -20.5t20 -49.5t-20 -48.5t-49 -19.5t-48.5 19.5t-19.5 48.5z" />
<glyph unicode="/" horiz-adv-x="584" d="M467 724h101l-451 -724h-99z" />
<glyph unicode="0" horiz-adv-x="595" d="M298 77q81 0 118 66t37 211q0 151 -37 222t-118 71t-118.5 -71t-37.5 -222q0 -143 39 -210t117 -67zM298 -8q-128 0 -190 87t-62 275q0 194 61 286.5t191 92.5q129 0 190 -92.5t61 -286.5q0 -190 -60.5 -276t-190.5 -86z" />
<glyph unicode="1" horiz-adv-x="353" d="M216 724h76v-724h-95v582q-25 -23 -71 -44t-104 -21v86q38 0 74.5 15.5t60.5 37t39 38.5t18 25z" />
<glyph unicode="2" horiz-adv-x="534" d="M488 83v-83h-442v58q0 37 19.5 72t50 64t68 57.5t75 58t68 60.5t50 69.5t19.5 79.5q0 53 -35 90.5t-100 37.5t-98.5 -44t-33.5 -116l-92 19q0 103 55.5 165t172.5 62q111 0 169.5 -59.5t58.5 -147.5q0 -57 -24 -109t-60.5 -89t-79 -72.5t-79 -61.5t-60.5 -54t-24 -52v-5 h322z" />
<glyph unicode="3" horiz-adv-x="567" d="M278 77q67 0 108 34.5t41 96.5q0 61 -52 91t-133 30h-35v85h35q76 0 122.5 26.5t46.5 83.5t-39 90t-101 33q-68 0 -103 -40t-35 -95l-93 19q1 94 60.5 148t174.5 54q109 0 171 -53.5t62 -138.5q0 -71 -37 -113t-98 -57q71 -15 111 -60t40 -118q0 -89 -66 -145t-182 -56 t-175.5 54t-59.5 147l93 19q0 -58 36 -97t108 -38z" />
<glyph unicode="4" d="M21 197v66l331 461h99v-448h65v-79h-65v-197h-95v197h-335zM128 276h228v317z" />
<glyph unicode="5" horiz-adv-x="553" d="M484 724v-84h-326v-200q60 21 118 21q117 0 180 -63.5t63 -173.5q0 -107 -63.5 -169.5t-176.5 -62.5q-117 0 -177.5 56.5t-61.5 153.5l89 15q0 -58 36.5 -99t108.5 -41q67 0 108 38.5t41 109.5q0 73 -39.5 114.5t-119.5 41.5q-27 0 -55.5 -6.5t-43 -12t-15.5 -6.5h-87 v368h421z" />
<glyph unicode="6" horiz-adv-x="585" d="M143 376v-10q61 79 177 79q96 0 160 -62t64 -163t-65.5 -164.5t-178.5 -63.5q-76 0 -127.5 27.5t-78.5 81.5t-37.5 119t-10.5 156q0 64 6 113.5t23 97t45 78.5t74.5 49.5t109.5 18.5q233 0 235 -221l-88 -19q0 153 -143 153q-43 0 -74 -15t-48.5 -38.5t-27.5 -61 t-12.5 -72.5t-2.5 -83zM296 367q-34 0 -62.5 -11.5t-46.5 -29.5t-27 -30t-14 -23q7 -95 41 -145.5t111 -50.5q66 0 106 43.5t40 107.5q0 62 -42 100.5t-106 38.5z" />
<glyph unicode="7" horiz-adv-x="479" d="M465 724v-53l-256 -671h-99l243 637h-335v87h447z" />
<glyph unicode="8" horiz-adv-x="605" d="M302 -8q-119 0 -190 56.5t-71 152.5q0 68 40.5 117t106.5 66q-54 17 -87.5 59.5t-33.5 104.5q0 80 64.5 132.5t171.5 52.5q106 0 171 -52.5t65 -132.5q0 -62 -34 -104.5t-87 -59.5q66 -17 106 -66t40 -117q0 -96 -71 -152.5t-191 -56.5zM464 218q0 56 -42 93.5t-101 37.5 h-42q-56 0 -97.5 -38t-41.5 -93q0 -65 45.5 -103.5t116.5 -38.5t116.5 38.5t45.5 103.5zM279 427h47q48 1 81 32t33 76q0 47 -38.5 80t-98.5 33q-59 0 -97.5 -33t-38.5 -80q0 -46 32.5 -76.5t79.5 -31.5z" />
<glyph unicode="9" horiz-adv-x="585" d="M277 78q43 0 74 15t48.5 38.5t27.5 61t12.5 72.5t2.5 83v11q-58 -80 -177 -80q-96 0 -160 62t-64 163t65.5 164.5t178.5 63.5q76 0 127.5 -27.5t78 -82t37 -119t10.5 -155.5q0 -64 -6 -113t-22.5 -96.5t-44.5 -78.5t-75 -49.5t-110 -18.5q-232 0 -234 211l88 20 q0 -145 143 -145zM289 357q34 0 62.5 11.5t46.5 29t27 29.5t14 23q-7 96 -41 146.5t-111 50.5q-66 0 -106 -43.5t-40 -107.5q0 -62 42 -100.5t106 -38.5z" />
<glyph unicode=":" horiz-adv-x="246" d="M54 63q0 29 20 49.5t48 20.5q29 0 49 -20.5t20 -49.5t-20 -48.5t-49 -19.5q-28 0 -48 19.5t-20 48.5zM54 432q0 29 20 49.5t48 20.5q29 0 49 -20.5t20 -49.5t-20 -48.5t-49 -19.5q-28 0 -48 20t-20 48z" />
<glyph unicode=";" horiz-adv-x="247" d="M54 63q0 29 20 49.5t48 20.5q29 0 49 -20.5t20 -49.5v-63q0 -133 -101 -133l-26 4v45q10 -3 27 -3q52 0 52 60v25q-11 -3 -21 -3q-28 0 -48 19.5t-20 48.5zM54 432q0 29 20 49.5t48 20.5q29 0 49 -20.5t20 -49.5t-20 -48.5t-49 -19.5q-28 0 -48 20t-20 48z" />
<glyph unicode="&#x3c;" horiz-adv-x="502" d="M24 227v71l436 265v-92l-350 -209l350 -208v-93z" />
<glyph unicode="=" horiz-adv-x="687" d="M57 443v78h573v-78h-573zM57 199v78h573v-78h-573z" />
<glyph unicode="&#x3e;" horiz-adv-x="502" d="M478 298v-71l-436 -266v93l350 208l-350 209v92z" />
<glyph unicode="?" horiz-adv-x="509" d="M267 143h-91v27q0 43 22 80.5t53 65t62.5 55t53.5 62t22 73.5q0 40 -13 69.5t-33.5 44t-42 21t-43.5 6.5q-146 0 -146 -155l-88 19q1 221 238 221q93 0 157.5 -53.5t64.5 -165.5q0 -48 -22 -90.5t-54 -72.5t-64 -57.5t-54 -58.5t-22 -63v-28zM162 22q0 27 19 45.5 t45 18.5t44.5 -18.5t18.5 -45.5t-18.5 -46t-44.5 -19t-45 19t-19 46z" />
<glyph unicode="@" horiz-adv-x="910" d="M548 261v65q0 103 -98 103q-94 0 -94 -95l-68 10q0 18 3 36t13 41t27 40t48 28.5t72 11.5q173 0 173 -164v-223q0 -50 44 -50q55 0 88 52t33 160q0 144 -93.5 229.5t-244.5 85.5q-149 0 -242 -93.5t-93 -250.5q0 -153 89.5 -246.5t242.5 -93.5q55 0 100 7.5t62 14.5l18 7 l24 -71q-66 -30 -204 -30q-190 0 -300.5 114t-110.5 298q0 193 114 304.5t300 111.5q187 0 301 -103.5t114 -283.5q0 -147 -59.5 -213.5t-153.5 -66.5q-37 0 -60.5 16t-28.5 32l-6 15h-5q-9 -22 -38 -43t-80 -21q-73 0 -119 46t-46 114q0 69 47.5 114.5t123.5 45.5 q43 0 69 -15.5t35 -33.5zM553 155q0 35 -26.5 63.5t-79.5 28.5q-44 0 -71 -25.5t-27 -66.5t27 -66.5t71 -25.5q55 0 80.5 28.5t25.5 63.5z" />
<glyph unicode="A" d="M431 0l-40 148h-233l-39 -148h-99l208 724h95l208 -724h-100zM275 587l-96 -361h192z" />
<glyph unicode="B" horiz-adv-x="591" d="M68 0v724h189q252 0 252 -184q0 -116 -106 -157q74 -15 117 -63t43 -123q0 -197 -274 -197h-221zM288 334h-125v-252h124q183 0 183 120q0 132 -182 132zM266 641h-103v-236h90q73 0 117 30t44 88q0 118 -148 118z" />
<glyph unicode="C" horiz-adv-x="572" d="M445 253l92 -15q0 -53 -10.5 -94t-36 -77t-74.5 -55.5t-119 -19.5q-63 0 -108.5 17t-73 46t-44 76.5t-22 99.5t-5.5 125q0 65 5.5 115.5t21.5 101.5t43 84t73.5 54t109.5 21q241 0 241 -244l-93 -19q0 178 -148 178q-43 0 -73 -17.5t-46 -43t-25 -68t-11 -77t-2 -85.5 q0 -59 2 -94.5t10.5 -75t25 -60.5t46.5 -35t73 -14q82 0 115 46.5t33 129.5z" />
<glyph unicode="D" horiz-adv-x="625" d="M68 0v724h191q140 0 234 -104t94 -263q0 -158 -93.5 -257.5t-234.5 -99.5h-191zM248 640h-85v-557h85q108 0 175.5 75.5t67.5 198.5q0 124 -68 203.5t-175 79.5z" />
<glyph unicode="E" horiz-adv-x="537" d="M504 83v-83h-436v724h436v-83h-341v-231h283v-84h-283v-243h341z" />
<glyph unicode="F" horiz-adv-x="513" d="M448 410v-84h-285v-326h-95v724h418v-84h-323v-230h285z" />
<glyph unicode="G" horiz-adv-x="582" d="M274 288v77h263v-123q0 -250 -240 -250q-63 0 -108.5 17t-73 46t-44 77t-22 100t-5.5 125q0 65 5.5 115t21.5 101t43 84t73.5 54t109.5 21q71 0 120.5 -20t74.5 -56.5t35.5 -77.5t10.5 -94l-89 -15q0 178 -152 178q-43 0 -73 -17.5t-46 -42.5t-25 -67.5t-11 -77t-2 -85.5 q0 -59 2 -94.5t10.5 -75t25 -61t46.5 -35.5t73 -14q85 0 118 44t33 118v49h-174z" />
<glyph unicode="H" horiz-adv-x="653" d="M490 724h95v-724h-95v323h-327v-323h-95v724h95v-317h327v317z" />
<glyph unicode="I" horiz-adv-x="231" d="M68 724h95v-724h-95v724z" />
<glyph unicode="J" horiz-adv-x="395" d="M14 1v86q45 -10 75 -10q79 0 113 39t34 115v493h95v-494q0 -115 -53.5 -176.5t-177.5 -61.5q-46 0 -86 9z" />
<glyph unicode="K" horiz-adv-x="571" d="M565 0h-114l-211 301l-76 -99v-202h-96v724h96v-387l280 387h117l-263 -347z" />
<glyph unicode="L" horiz-adv-x="470" d="M457 83v-83h-389v724h95v-641h294z" />
<glyph unicode="M" horiz-adv-x="736" d="M367 243l-204 302v-545h-95v724h80l219 -329l222 329h79v-724h-95v545z" />
<glyph unicode="N" horiz-adv-x="646" d="M483 724h95v-724h-92l-323 528v-528h-95v724h77l338 -546v546z" />
<glyph unicode="O" horiz-adv-x="622" d="M311 -8q-139 0 -203.5 87.5t-64.5 279.5q0 193 64.5 283t203.5 90t203.5 -90t64.5 -283q0 -192 -64.5 -279.5t-203.5 -87.5zM311 77q90 0 131 67t41 215q0 150 -41 219t-131 69t-131 -69t-41 -219q0 -148 41 -215t131 -67z" />
<glyph unicode="P" horiz-adv-x="590" d="M68 724h228q270 0 270 -223q0 -110 -74 -165.5t-198 -55.5h-131v-280h-95v724zM292 640h-129v-276h132q82 0 129.5 33.5t47.5 104.5t-48.5 104.5t-131.5 33.5z" />
<glyph unicode="Q" horiz-adv-x="620" d="M578 360q0 -179 -55.5 -267t-174.5 -99q5 -43 40.5 -69.5t107.5 -25.5v-83q-111 -1 -163.5 51t-57.5 127q-121 10 -177 98.5t-56 268.5q0 193 64.5 282t203.5 89t203.5 -89.5t64.5 -282.5zM310 77q89 0 130 67.5t41 215.5q0 149 -41 218t-130 69q-90 0 -131 -68.5 t-41 -217.5t41 -216.5t131 -67.5z" />
<glyph unicode="R" horiz-adv-x="590" d="M550 0h-96l-136 288q-8 -1 -27 -1h-128v-287h-95v724h224q270 0 270 -223q0 -154 -154 -199zM288 640h-125v-271h128q82 0 130 32.5t48 100.5q0 71 -48.5 104.5t-132.5 33.5z" />
<glyph unicode="S" horiz-adv-x="543" d="M408 192q0 49 -37.5 80t-90.5 49t-106.5 39t-91 66.5t-37.5 115.5q0 76 56 133t166 57q116 0 175.5 -56.5t59.5 -152.5l-91 -14q0 65 -35 102t-107 37q-65 0 -97 -30.5t-32 -76.5q0 -38 27 -65t67.5 -41.5t87.5 -34.5t87.5 -42.5t67.5 -67.5t27 -107q0 -84 -56 -137.5 t-181 -54.5q-118 -1 -176 58t-58 140l89 15q0 -55 35.5 -92t111.5 -37q139 0 139 117z" />
<glyph unicode="T" horiz-adv-x="523" d="M507 724v-83h-199v-641h-95v641h-198v83h492z" />
<glyph unicode="U" horiz-adv-x="625" d="M467 724h95v-474q0 -121 -62 -189.5t-188 -68.5q-127 0 -188 68.5t-61 189.5v474h95v-466q0 -82 40.5 -131.5t113.5 -49.5q74 0 114.5 49.5t40.5 131.5v466z" />
<glyph unicode="V" horiz-adv-x="570" d="M336 0h-102l-217 724h107l164 -590l165 590h100z" />
<glyph unicode="W" horiz-adv-x="892" d="M310 0h-100l-190 724h101l144 -590l137 590h85l147 -590l137 590h98l-183 -724h-101l-137 588z" />
<glyph unicode="X" horiz-adv-x="557" d="M116 0h-108l209 362l-204 362h109l156 -288l156 288h108l-203 -363l209 -361h-108l-162 288z" />
<glyph unicode="Y" horiz-adv-x="569" d="M21 724h105l161 -338l163 338h98l-217 -438v-286h-95v286z" />
<glyph unicode="Z" horiz-adv-x="508" d="M475 724v-79l-337 -562h338v-83h-443v76l334 564h-335v84h443z" />
<glyph unicode="[" horiz-adv-x="365" d="M338 783v-83h-184v-660h184v-83h-279v826h279z" />
<glyph unicode="\" horiz-adv-x="584" d="M17 724h100l450 -724h-100z" />
<glyph unicode="]" horiz-adv-x="365" d="M26 699v84h280v-826h-280v83h185v659h-185z" />
<glyph unicode="^" horiz-adv-x="362" d="M126 732h111l86 -172h-64l-77 112l-78 -112h-65z" />
<glyph unicode="_" horiz-adv-x="602" d="M550 -11v-78h-498v78h498z" />
<glyph unicode="`" horiz-adv-x="423" d="M102 752h112l80 -172h-73z" />
<glyph unicode="a" horiz-adv-x="492" d="M339 259h3v69q0 45 -28 71t-85 26q-111 0 -111 -89l-75 16q0 25 6.5 47t24 47.5t57.5 40.5t99 15q104 0 150.5 -44.5t46.5 -118.5v-236q0 -33 28 -33l23 4v-70q-18 -9 -55 -9q-34 0 -51.5 18t-17.5 42v2h-3q-1 -3 -4 -7t-13.5 -14.5t-24.5 -19t-38.5 -15t-53.5 -6.5 q-84 0 -132.5 44t-48.5 110q0 64 49.5 108t132.5 44q41 0 71 -10.5t40 -20.5zM224 68q58 0 88.5 22t30.5 58q0 37 -29.5 59.5t-89.5 22.5q-48 0 -76 -24t-28 -58q0 -33 28 -56.5t76 -23.5z" />
<glyph unicode="b" horiz-adv-x="500" d="M59 734h86v-293h4q9 23 41 42t83 19q188 0 188 -254q0 -253 -187 -253q-53 0 -87 20.5t-43 43.5h-4v-59h-81v734zM136 248q0 -89 29 -133.5t96 -44.5q60 0 87.5 44.5t27.5 133.5q0 91 -27 134t-88 43q-125 0 -125 -177z" />
<glyph unicode="c" horiz-adv-x="473" d="M356 182l81 -13q0 -37 -8.5 -66.5t-28.5 -54.5t-59 -39t-95 -14q-107 0 -157 59.5t-50 191.5q0 133 50.5 194.5t156.5 61.5q107 0 149.5 -47.5t42.5 -127.5l-82 -16q0 114 -110 114q-62 0 -91 -42.5t-29 -136.5q0 -92 29 -134t91 -42q61 0 85.5 29t24.5 83z" />
<glyph unicode="d" horiz-adv-x="501" d="M356 734h85v-734h-81v59h-3q-10 -23 -44 -43.5t-87 -20.5q-186 0 -186 253q0 254 187 254q52 0 83.5 -19t41.5 -42h4v293zM364 248q0 177 -125 177q-61 0 -88 -43t-27 -134q0 -89 27.5 -133.5t87.5 -44.5q68 0 96.5 44.5t28.5 133.5z" />
<glyph unicode="e" horiz-adv-x="476" d="M362 152l75 -11q0 -59 -48 -102.5t-143 -43.5q-107 0 -157 59.5t-50 190.5q0 133 50.5 195t156.5 62q58 0 97 -18.5t59 -54.5t28 -79t8 -102v-11h-312q1 -87 30 -127t90 -40q57 0 86.5 25t29.5 57zM246 428q-54 0 -82.5 -30.5t-35.5 -98.5h229q-3 63 -27 96t-84 33z" />
<glyph unicode="f" horiz-adv-x="324" d="M333 729v-76q-28 7 -56 7q-53 0 -77 -23t-24 -69v-72h135v-74h-135v-422h-85v422h-71v74h71v75q0 80 40.5 123t135.5 43q16 0 32.5 -2t24.5 -4z" />
<glyph unicode="g" horiz-adv-x="501" d="M232 502q51 0 83.5 -21t42.5 -44h6v59h77v-543q0 -163 -192 -163q-52 0 -90 11.5t-56 27t-28.5 38t-12 36t-1.5 30.5l77 15q0 -89 111 -89q109 0 109 96v101h-4q-9 -23 -41 -42t-84 -19q-190 0 -190 253q0 128 47 191t146 63zM364 248q0 177 -125 177q-62 0 -89 -43 t-27 -134q0 -90 27 -134t89 -44q68 0 96.5 44.5t28.5 133.5z" />
<glyph unicode="h" horiz-adv-x="513" d="M456 0h-85v312q0 113 -110 113q-59 0 -87.5 -36.5t-28.5 -77.5v-311h-85v725h83v-296h3q4 12 15 26.5t44 30.5t79 16q89 0 130.5 -48t41.5 -124v-330z" />
<glyph unicode="i" horiz-adv-x="205" d="M60 496h85v-496h-85v496zM38 637q0 26 18 44t44 18t44.5 -18t18.5 -44q0 -25 -18.5 -42.5t-44.5 -17.5t-44 17.5t-18 42.5z" />
<glyph unicode="j" horiz-adv-x="205" d="M-98 -202v76q49 -7 69 -7q48 0 68.5 23.5t20.5 73.5v532h85v-534q0 -83 -37.5 -127.5t-126.5 -44.5q-39 0 -79 8zM39 637q0 26 18 44t44 18t44 -18t18 -44q0 -25 -18 -42.5t-44 -17.5t-44 17.5t-18 42.5z" />
<glyph unicode="k" horiz-adv-x="470" d="M460 0h-102l-156 192l-57 -67v-125h-85v734h85v-497l214 259h102l-206 -242z" />
<glyph unicode="l" horiz-adv-x="219" d="M58 734h85v-636q1 -28 28 -28l22 4v-70q-17 -9 -53 -9q-82 0 -82 81v658z" />
<glyph unicode="m" horiz-adv-x="817" d="M60 496h77v-74h3q6 14 17.5 29t46 33t80.5 18q114 0 153 -81q46 81 152 81q89 0 130.5 -48t41.5 -124v-330h-86v313q0 112 -109 112q-46 0 -73.5 -22t-37.5 -55q0 -3 0.5 -9t0.5 -9v-330h-85v313q0 112 -110 112q-57 0 -86.5 -34t-29.5 -73v-318h-85v496z" />
<glyph unicode="n" horiz-adv-x="513" d="M456 0h-85v313q0 112 -110 112q-57 0 -86.5 -34t-29.5 -73v-318h-85v496h77v-74h3q6 14 17.5 29t46 33t80.5 18q89 0 130.5 -48t41.5 -124v-330z" />
<glyph unicode="o" horiz-adv-x="491" d="M246 -5q-107 0 -157 60t-50 191q0 132 50 194t157 62q106 0 155.5 -62t49.5 -194t-49 -191.5t-156 -59.5zM246 70q62 0 91 42t29 134q0 93 -29 136t-91 43t-91 -42.5t-29 -136.5q0 -92 29 -134t91 -42z" />
<glyph unicode="p" horiz-adv-x="501" d="M145 -198h-85v695h81v-59h4q9 22 43 43.5t87 21.5q187 0 187 -254t-188 -254q-52 0 -83.5 19t-40.5 42h-5v-254zM137 248q0 -178 125 -178q61 0 88 43.5t27 134.5q0 90 -27.5 133.5t-87.5 43.5q-68 0 -96.5 -44t-28.5 -133z" />
<glyph unicode="q" horiz-adv-x="500" d="M441 -198h-85v253h-4q-10 -23 -41.5 -41.5t-83.5 -18.5q-187 0 -187 253q0 254 186 254q53 0 87 -21t44 -44h3v59h81v-694zM364 247q0 89 -28.5 133.5t-96.5 44.5q-60 0 -87.5 -44t-27.5 -134q0 -91 27 -134t88 -43q125 0 125 177z" />
<glyph unicode="r" horiz-adv-x="347" d="M325 497v-82q-20 5 -40 5q-41 0 -70 -14.5t-43.5 -39t-20.5 -50t-6 -53.5v-263h-85v496h77v-91h3q4 12 11.5 24t24.5 31t47.5 30.5t69.5 11.5q12 0 32 -5z" />
<glyph unicode="s" horiz-adv-x="449" d="M326 136q0 29 -29.5 47.5t-71 29.5t-83 25.5t-71 46t-29.5 80.5q0 55 45 96t133 41q94 0 142 -39.5t48 -106.5l-81 -13q0 39 -26.5 62t-79.5 23q-48 0 -72 -17.5t-24 -45.5q0 -27 29.5 -44.5t71.5 -29.5t83.5 -28t71 -50t29.5 -85q0 -59 -45.5 -96t-146.5 -38 q-95 -1 -141 40.5t-46 99.5l80 13q0 -34 26.5 -56.5t83.5 -22.5q103 0 103 68z" />
<glyph unicode="t" horiz-adv-x="340" d="M322 496v-74h-148v-249q0 -102 90 -102q16 0 29.5 2t19.5 4l6 2v-76q-32 -8 -65 -8q-89 0 -127.5 39.5t-38.5 113.5v274h-70v74h70v131h86v-131h148z" />
<glyph unicode="u" horiz-adv-x="512" d="M452 0h-77v75h-4q-4 -13 -16 -28.5t-46.5 -33.5t-81.5 -18q-89 0 -130 47.5t-41 123.5v330h86v-312q0 -113 107 -113q57 0 87 34t30 74v317h86v-496z" />
<glyph unicode="v" horiz-adv-x="470" d="M281 0h-92l-169 496h96l122 -375l123 375h90z" />
<glyph unicode="w" horiz-adv-x="724" d="M258 0h-89l-147 496h91l106 -374l102 374h79l111 -374l100 374h89l-141 -496h-92l-103 378z" />
<glyph unicode="x" horiz-adv-x="459" d="M108 0h-96l166 246l-163 250h97l118 -179l117 179h97l-163 -250l167 -246h-97l-121 176q-10 -19 -40.5 -63t-55.5 -79z" />
<glyph unicode="y" horiz-adv-x="470" d="M43 -203v77q23 -8 56 -8t52 14t29 46l24 74h-15l-169 496h96l122 -375l123 375h90l-150 -438l-46 -142q-21 -64 -55 -95.5t-92 -31.5q-18 0 -34 2t-24 4z" />
<glyph unicode="z" horiz-adv-x="429" d="M392 496v-69l-256 -353h257v-74h-357v68l254 353h-254v75h356z" />
<glyph unicode="{" horiz-adv-x="361" d="M339 -6v-82q-42 0 -79 9.5t-71 31t-54 63t-20 98.5v90q0 64 -34.5 95t-70.5 31v95q36 0 70.5 31t34.5 95v90q0 57 20 98t53.5 63t71 31.5t79.5 9.5v-84q-129 0 -129 -122v-95q0 -41 -11.5 -73.5t-30 -50.5t-34.5 -27.5t-30 -13.5q35 -8 70.5 -48t35.5 -117v-95 q0 -66 36.5 -94.5t92.5 -28.5z" />
<glyph unicode="|" horiz-adv-x="213" d="M60 809h93v-978h-93v978z" />
<glyph unicode="}" horiz-adv-x="362" d="M22 -88v82q56 0 93 28.5t37 94.5v95q0 77 35 117t70 48q-14 4 -30 13.5t-34 27.5t-29.5 50.5t-11.5 73.5v95q0 122 -130 122v84q42 0 79.5 -9.5t71.5 -31.5t54 -63t20 -98v-90q0 -64 34.5 -95t70.5 -31v-95q-36 0 -70.5 -31t-34.5 -95v-90q0 -57 -20 -98.5t-54 -63 t-71.5 -31t-79.5 -9.5z" />
<glyph unicode="~" horiz-adv-x="513" d="M402 397h61q0 -35 -30.5 -74t-94.5 -39q-40 0 -92.5 32t-81.5 32q-24 0 -37 -14t-13 -33h-59q0 40 27 74t81 34q38 0 91.5 -32t82.5 -32q32 0 48.5 17.5t16.5 34.5z" />
<glyph unicode="&#xa1;" horiz-adv-x="195" d="M145 -237h-92l17 563h56zM43 447q0 23 15.5 39t37.5 16q23 0 38.5 -16t15.5 -39t-15.5 -39t-38.5 -16q-22 0 -37.5 16t-15.5 39z" />
<glyph unicode="&#xa2;" horiz-adv-x="570" d="M445 284l88 -15q0 -217 -196 -237v-87h-86v87q-52 5 -90 22.5t-61 44.5t-36.5 68t-18.5 85t-5 104q0 52 4.5 92.5t18 82t36.5 70t61.5 48.5t90.5 26v94h86v-94q197 -21 197 -239l-88 -15q0 63 -27.5 110t-89.5 58v-471q116 18 116 166zM136 356q0 -46 1.5 -74t8.5 -60.5 t19.5 -51t36 -33.5t57.5 -19v471q-34 -5 -57.5 -22t-36 -37.5t-19.5 -53.5t-8.5 -57.5t-1.5 -62.5z" />
<glyph unicode="&#xa3;" horiz-adv-x="566" d="M540 584l-79 -26q-12 37 -47.5 63t-88.5 26q-77 0 -111.5 -38t-34.5 -100q0 -14 2.5 -30t5.5 -27.5t10 -31t10.5 -28.5t13 -31t12.5 -29h187v-76h-160q11 -38 11 -71q0 -61 -35 -102h267v-83h-460v67q57 0 94.5 27.5t37.5 88.5q0 30 -12 73h-123v76h96q-1 3 -7.5 18.5 t-8 19.5t-7 18t-7 19.5t-6 18.5t-6 19.5t-4.5 18t-4 20t-2 18.5t-1 19q0 95 59.5 153t170.5 58q102 0 158.5 -41.5t68.5 -106.5z" />
<glyph unicode="&#xa4;" horiz-adv-x="705" d="M90 311q0 104 54 173l-105 105l52 49l106 -105q63 43 155 43q88 0 155 -43l106 105l52 -49l-104 -105q56 -68 56 -173q0 -100 -51 -166l104 -105l-52 -49l-105 104q-66 -46 -161 -46t-160 45l-104 -105l-52 50l104 105q-50 67 -50 167zM169 311q0 -84 49.5 -133.5 t133.5 -49.5q85 0 135 49.5t50 133.5q0 85 -50 135.5t-135 50.5q-84 0 -133.5 -50.5t-49.5 -135.5z" />
<glyph unicode="&#xa5;" horiz-adv-x="577" d="M26 724h105l161 -338l163 338h98l-191 -385h149v-73h-175v-74h175v-74h-175v-118h-95v118h-181v74h181v74h-181v73h155z" />
<glyph unicode="&#xa6;" horiz-adv-x="214" d="M63 806h89v-425h-89v425zM63 260h89v-427h-89v427z" />
<glyph unicode="&#xa7;" horiz-adv-x="556" d="M510 183q0 -57 -26 -99q26 -46 26 -104q0 -84 -56.5 -137.5t-181.5 -54.5q-118 -1 -176 58t-58 141l89 14q0 -55 35.5 -92t111.5 -37q77 0 108.5 33.5t31.5 83.5q0 42 -27 70.5t-67.5 43t-87.5 33t-87.5 38.5t-67.5 61.5t-27 100.5q0 56 31 100q-31 44 -31 106 q0 76 56 133t166 57q117 0 176 -56.5t59 -152.5l-90 -15q0 65 -35.5 102.5t-107.5 37.5q-65 0 -97 -30.5t-32 -76.5q0 -44 37.5 -73t91.5 -48t107.5 -42.5t91 -72.5t37.5 -122zM414 192q0 34 -16 58.5t-46 41t-61 28t-72 27t-68 30.5q-6 -18 -6 -39q0 -38 27.5 -65.5 t62.5 -41.5t88.5 -35.5t85.5 -40.5q5 15 5 37z" />
<glyph unicode="&#xa8;" horiz-adv-x="543" d="M96 635q0 24 17 41t41 17q25 0 42 -17t17 -41t-17 -40.5t-42 -16.5q-24 0 -41 16.5t-17 40.5zM300 635q0 24 17 41t42 17q24 0 41.5 -17t17.5 -41t-17.5 -40.5t-41.5 -16.5q-25 0 -42 16.5t-17 40.5z" />
<glyph unicode="&#xa9;" horiz-adv-x="655" d="M98 311q0 -104 62 -166.5t166 -62.5q105 0 168 62.5t63 166.5q0 105 -63 168.5t-168 63.5q-104 0 -166 -63.5t-62 -168.5zM43 311q0 127 77.5 204.5t205.5 77.5q129 0 207 -77.5t78 -204.5q0 -126 -78 -202.5t-207 -76.5q-128 0 -205.5 76.5t-77.5 202.5zM388 257l56 -11 q0 -121 -121 -121q-70 0 -98 46t-28 137q0 41 5 71.5t17.5 59t39 43t65.5 14.5q121 0 121 -122l-56 -10q0 32 -16.5 55.5t-48.5 23.5q-22 0 -36.5 -11.5t-21.5 -33t-9 -42t-2 -48.5q0 -129 68 -129q65 0 65 78z" />
<glyph unicode="&#xaa;" horiz-adv-x="385" d="M241 569h2v47q0 51 -68 51q-67 0 -67 -45l-64 10q0 16 4.5 31t16.5 32t40.5 27.5t69.5 10.5q139 0 139 -110v-150q0 -21 19 -21l15 2v-56q-14 -7 -41 -7t-41.5 12.5t-14.5 28.5v1h-2q-1 -2 -2.5 -4.5t-8.5 -10t-16.5 -13t-26 -10t-36.5 -4.5q-55 0 -87 30t-32 74t32 73.5 t88 29.5q28 0 48 -7t26 -15zM166 449q34 0 51.5 13t17.5 33q0 46 -69 46q-27 0 -42 -13.5t-15 -32.5t15.5 -32.5t41.5 -13.5z" />
<glyph unicode="&#xab;" horiz-adv-x="592" d="M27 273v71l253 164v-80l-185 -120l185 -118v-81zM543 191v-81l-255 163v71l255 164v-80l-185 -119z" />
<glyph unicode="&#xac;" horiz-adv-x="653" d="M594 197h-86v235h-476v77h562v-312z" />
<glyph unicode="&#xad;" horiz-adv-x="516" d="M461 346v-77h-405v77h405z" />
<glyph unicode="&#xae;" horiz-adv-x="655" d="M43 382q0 128 77.5 205t205.5 77q129 0 207 -77t78 -205q0 -126 -78 -202t-207 -76q-128 0 -205.5 76t-77.5 202zM98 382q0 -104 62 -166t166 -62q105 0 168 62t63 166q0 106 -63 169t-168 63q-104 0 -166 -63t-62 -169zM469 217h-59l-73 142q-4 -1 -16 -1h-45v-141h-57 v353h103q137 0 137 -109q0 -71 -69 -93zM321 519h-45v-113h47q81 0 81 56q0 57 -83 57z" />
<glyph unicode="&#xaf;" horiz-adv-x="764" d="M533 658v-77h-336v77h336z" />
<glyph unicode="&#xb0;" horiz-adv-x="347" d="M99 515q0 -31 21.5 -52.5t52.5 -21.5t53 21.5t22 52.5t-22 53t-53 22t-52.5 -22t-21.5 -53zM34 515q0 58 40.5 99.5t98.5 41.5t99.5 -41.5t41.5 -99.5t-41.5 -99t-99.5 -41t-98.5 41t-40.5 99z" />
<glyph unicode="&#xb1;" horiz-adv-x="530" d="M475 496v-78h-167v-173h-86v173h-167v78h167v175h86v-175h167zM476 193v-78h-420v78h420z" />
<glyph unicode="&#xb2;" horiz-adv-x="368" d="M320 441v-61h-269v30q1 29 20.5 54t47.5 42t55.5 33t47 34t19.5 38q0 23 -17 39.5t-51 16.5q-30 0 -49 -23t-19 -57l-61 13q1 59 34 95.5t100 36.5q69 0 103.5 -32.5t34.5 -80.5q0 -34 -25.5 -63t-56 -45.5t-56 -35.5t-25.5 -34h167z" />
<glyph unicode="&#xb3;" horiz-adv-x="336" d="M131 576h21q64 2 64 52q0 23 -15 34.5t-38 11.5q-34 0 -50 -15t-16 -37l-57 12q0 45 31.5 71.5t91.5 26.5q59 0 92 -25.5t33 -65.5q0 -65 -59 -85q67 -21 67 -92q0 -42 -35 -66.5t-98 -24.5q-61 0 -91.5 25t-30.5 69l56 11q0 -20 18 -34.5t51 -14.5q27 0 43 14.5t16 39.5 q0 49 -73 49h-21v44z" />
<glyph unicode="&#xb4;" horiz-adv-x="349" d="M161 753h112l-119 -172h-73z" />
<glyph unicode="&#xb5;" horiz-adv-x="506" d="M142 -198h-86v694h86v-312q0 -113 107 -113q57 0 87 34t30 74v317h86v-496h-77v75h-4q-4 -13 -16 -28.5t-46.5 -33.5t-81.5 -18q-48 0 -85 16v-209z" />
<glyph unicode="&#xb6;" horiz-adv-x="664" d="M455 724v-803h-81v313h-57q-134 0 -213.5 62t-79.5 184t79 183t214 61h138zM521 724h81v-803h-81v803z" />
<glyph unicode="&#xb7;" horiz-adv-x="217" d="M40 431q0 29 20 49.5t48 20.5q29 0 49 -20.5t20 -49.5t-20 -48.5t-49 -19.5q-28 0 -48 19.5t-20 48.5z" />
<glyph unicode="&#xb8;" horiz-adv-x="618" d="M226 -91l23 93h61l-15 -43q82 -14 82 -88q0 -44 -34.5 -67t-82.5 -23q-60 0 -87.5 28t-27.5 66l58 10q0 -20 14.5 -33t44.5 -13q23 0 37.5 9.5t14.5 26.5t-12.5 28.5t-37.5 11.5q-23 0 -38 -6z" />
<glyph unicode="&#xb9;" horiz-adv-x="265" d="M24 591v70q31 0 59.5 15t42 29t14.5 19h68v-351h-76v261q-43 -43 -108 -43z" />
<glyph unicode="&#xba;" horiz-adv-x="365" d="M182 456q36 0 52.5 25.5t16.5 81.5q0 104 -69 104q-68 0 -68 -104q0 -56 16 -81.5t52 -25.5zM182 391q-74 0 -109 42t-35 130q0 85 35 127t109 42q75 0 110 -42t35 -127q0 -88 -35 -130t-110 -42z" />
<glyph unicode="&#xbb;" horiz-adv-x="592" d="M312 428v80l253 -164v-71l-253 -164v81l185 118zM49 428v80l255 -164v-71l-255 -163v81l185 118z" />
<glyph unicode="&#xbc;" horiz-adv-x="653" d="M313 82v53l156 210h85v-208h33v-55h-33v-82h-70v82h-171zM532 724h89l-451 -724h-87zM384 137h100v137zM28 591v70q31 0 60 15t42 29t15 19h67v-351h-76v261q-43 -43 -108 -43z" />
<glyph unicode="&#xbd;" horiz-adv-x="677" d="M644 61v-61h-269v31q1 29 20.5 54t47.5 42t55.5 33t47 34t19.5 38q0 23 -17 39t-51 16q-30 0 -49.5 -23t-19.5 -57l-60 13q1 59 34 95.5t100 36.5q69 0 103.5 -32.5t34.5 -80.5q0 -33 -25.5 -62t-56 -46t-56 -36t-25.5 -34h167zM30 591v70q31 0 60 15t42 29t15 19h67 v-351h-76v261q-43 -43 -108 -43zM500 724h89l-451 -724h-87z" />
<glyph unicode="&#xbe;" horiz-adv-x="646" d="M588 137v-55h-33v-82h-70v82h-171v53l156 210h85v-208h33zM131 576h21q64 2 64 52q0 23 -15 34.5t-39 11.5q-34 0 -49.5 -14.5t-15.5 -37.5l-57 12q0 45 31.5 71.5t90.5 26.5q58 0 91.5 -25.5t33.5 -65.5q0 -66 -59 -85q68 -21 68 -92q0 -42 -35 -66.5t-99 -24.5 q-61 0 -91 25t-30 69l56 11q0 -20 18 -34.5t51 -14.5q27 0 42.5 14.5t15.5 39.5q0 49 -72 49h-21v44zM385 137h100v137zM525 724h89l-451 -724h-87z" />
<glyph unicode="&#xbf;" horiz-adv-x="505" d="M240 316h91v-27q0 -43 -22 -80.5t-53.5 -65t-62.5 -55t-53 -62t-22 -73.5q0 -40 13 -69.5t33.5 -44t42 -21t43.5 -6.5q146 0 146 155l88 -19q-1 -221 -238 -221q-93 0 -157.5 53.5t-64.5 165.5q0 48 22 90.5t54 72.5t64 57.5t54 58.5t22 63v28zM345 437q0 -27 -19 -45.5 t-45 -18.5t-44.5 18.5t-18.5 45.5t18.5 46t44.5 19t45 -19t19 -46z" />
<glyph unicode="&#xc0;" d="M431 0l-40 148h-233l-39 -148h-99l208 724h95l208 -724h-100zM275 587l-96 -361h192zM124 945h112l80 -172h-73z" />
<glyph unicode="&#xc1;" d="M431 0l-40 148h-233l-39 -148h-99l208 724h95l208 -724h-100zM275 587l-96 -361h192zM314 945h112l-119 -172h-73z" />
<glyph unicode="&#xc2;" d="M431 0l-40 148h-233l-39 -148h-99l208 724h95l208 -724h-100zM275 587l-96 -361h192zM220 945h110l87 -172h-65l-77 112l-78 -112h-64z" />
<glyph unicode="&#xc3;" d="M431 0l-40 148h-233l-39 -148h-99l208 724h95l208 -724h-100zM275 587l-96 -361h192zM402 878h60q0 -34 -29 -71t-91 -37q-36 0 -81 27.5t-67 27.5t-34 -13t-12 -29h-59q0 38 26.5 70.5t77.5 32.5q33 0 80 -27.5t68 -27.5q30 0 45.5 16t15.5 31z" />
<glyph unicode="&#xc4;" d="M431 0l-40 148h-233l-39 -148h-99l208 724h95l208 -724h-100zM275 587l-96 -361h192zM115 827q0 24 17 41t41 17q25 0 42 -17t17 -41t-17 -40.5t-42 -16.5q-24 0 -41 16.5t-17 40.5zM319 827q0 24 17 41t42 17q24 0 41.5 -17t17.5 -41t-17.5 -40.5t-41.5 -16.5 q-25 0 -42 16.5t-17 40.5z" />
<glyph unicode="&#xc5;" d="M431 0l-40 148h-233l-39 -148h-99l208 724h95l208 -724h-100zM275 587l-96 -361h192zM181 863q0 39 28 67t66 28q39 0 67 -28t28 -67q0 -38 -28 -65.5t-67 -27.5q-38 0 -66 27.5t-28 65.5zM236 863q0 -15 11.5 -26.5t27.5 -11.5t28 11.5t12 26.5q0 17 -11.5 28.5 t-28.5 11.5q-16 0 -27.5 -12t-11.5 -28z" />
<glyph unicode="&#xc6;" horiz-adv-x="884" d="M107 0h-104l365 724h482v-83h-340v-231h282v-84h-282v-243h340v-83h-436v155h-231zM215 220h199v404z" />
<glyph unicode="&#xc7;" horiz-adv-x="572" d="M248 -85l19 78q-55 4 -95 22.5t-64.5 48t-39 76t-19.5 97t-5 119.5q0 65 5.5 115.5t21.5 101.5t43 84t73.5 54t109.5 21q241 0 241 -244l-93 -19q0 178 -148 178q-43 0 -73 -17.5t-46 -43t-25 -68t-11 -77t-2 -85.5q0 -59 2 -94.5t10.5 -75t25 -60.5t46.5 -35t73 -14 q82 0 115 46.5t33 129.5l92 -15q0 -105 -46.5 -171t-163.5 -74l-10 -28q82 -14 82 -88q0 -44 -34.5 -67t-82.5 -23q-60 0 -87.5 28t-27.5 66l58 10q0 -20 14.5 -33t44.5 -13q23 0 37.5 9.5t14.5 26.5t-12.5 28.5t-37.5 11.5q-23 0 -38 -6z" />
<glyph unicode="&#xc8;" horiz-adv-x="537" d="M504 83v-83h-436v724h436v-83h-341v-231h283v-84h-283v-243h341zM141 945h112l80 -172h-73z" />
<glyph unicode="&#xc9;" horiz-adv-x="537" d="M322 945h112l-119 -172h-73zM504 83v-83h-436v724h436v-83h-341v-231h283v-84h-283v-243h341z" />
<glyph unicode="&#xca;" horiz-adv-x="537" d="M231 945h110l87 -172h-65l-77 112l-78 -112h-64zM504 83v-83h-436v724h436v-83h-341v-231h283v-84h-283v-243h341z" />
<glyph unicode="&#xcb;" horiz-adv-x="537" d="M126 827q0 24 17 41t41 17q25 0 42 -17t17 -41t-17 -40.5t-42 -16.5q-24 0 -41 16.5t-17 40.5zM330 827q0 24 17 41t42 17q24 0 41.5 -17t17.5 -41t-17.5 -40.5t-41.5 -16.5q-25 0 -42 16.5t-17 40.5zM504 83v-83h-436v724h436v-83h-341v-231h283v-84h-283v-243h341z" />
<glyph unicode="&#xcc;" horiz-adv-x="231" d="M68 724h95v-724h-95v724zM-39 945h112l80 -172h-73z" />
<glyph unicode="&#xcd;" horiz-adv-x="231" d="M68 724h95v-724h-95v724zM158 945h112l-119 -172h-73z" />
<glyph unicode="&#xce;" horiz-adv-x="231" d="M68 724h95v-724h-95v724zM60 945h110l87 -172h-65l-77 112l-78 -112h-64z" />
<glyph unicode="&#xcf;" horiz-adv-x="231" d="M68 724h95v-724h-95v724zM-45 827q0 24 17 41t41 17q25 0 42 -17t17 -41t-17 -40.5t-42 -16.5q-24 0 -41 16.5t-17 40.5zM159 827q0 24 17 41t42 17q24 0 41.5 -17t17.5 -41t-17.5 -40.5t-41.5 -16.5q-25 0 -42 16.5t-17 40.5z" />
<glyph unicode="&#xd0;" horiz-adv-x="639" d="M13 330v81h69v313h191q140 0 234 -104t94 -263q0 -158 -93.5 -257.5t-234.5 -99.5h-191v330h-69zM262 640h-85v-229h108v-81h-108v-247h85q108 0 175.5 75.5t67.5 198.5q0 124 -68 203.5t-175 79.5z" />
<glyph unicode="&#xd1;" horiz-adv-x="646" d="M483 724h95v-724h-92l-323 528v-528h-95v724h77l338 -546v546zM453 878h60q0 -34 -29 -71t-91 -37q-36 0 -81 27.5t-67 27.5t-34 -13t-12 -29h-59q0 38 26.5 70.5t77.5 32.5q33 0 80 -27.5t68 -27.5q30 0 45.5 16t15.5 31z" />
<glyph unicode="&#xd2;" horiz-adv-x="622" d="M311 -8q-139 0 -203.5 87.5t-64.5 279.5q0 193 64.5 283t203.5 90t203.5 -90t64.5 -283q0 -192 -64.5 -279.5t-203.5 -87.5zM311 77q90 0 131 67t41 215q0 150 -41 219t-131 69t-131 -69t-41 -219q0 -148 41 -215t131 -67zM163 945h112l80 -172h-73z" />
<glyph unicode="&#xd3;" horiz-adv-x="622" d="M347 945h112l-119 -172h-73zM311 -8q-139 0 -203.5 87.5t-64.5 279.5q0 193 64.5 283t203.5 90t203.5 -90t64.5 -283q0 -192 -64.5 -279.5t-203.5 -87.5zM311 77q90 0 131 67t41 215q0 150 -41 219t-131 69t-131 -69t-41 -219q0 -148 41 -215t131 -67z" />
<glyph unicode="&#xd4;" horiz-adv-x="622" d="M256 945h110l87 -172h-65l-77 112l-78 -112h-64zM311 -8q-139 0 -203.5 87.5t-64.5 279.5q0 193 64.5 283t203.5 90t203.5 -90t64.5 -283q0 -192 -64.5 -279.5t-203.5 -87.5zM311 77q90 0 131 67t41 215q0 150 -41 219t-131 69t-131 -69t-41 -219q0 -148 41 -215t131 -67 z" />
<glyph unicode="&#xd5;" horiz-adv-x="622" d="M311 -8q-139 0 -203.5 87.5t-64.5 279.5q0 193 64.5 283t203.5 90t203.5 -90t64.5 -283q0 -192 -64.5 -279.5t-203.5 -87.5zM311 77q90 0 131 67t41 215q0 150 -41 219t-131 69t-131 -69t-41 -219q0 -148 41 -215t131 -67zM438 878h60q0 -34 -29 -71t-91 -37 q-36 0 -81 27.5t-67 27.5t-34 -13t-12 -29h-59q0 38 26.5 70.5t77.5 32.5q33 0 80 -27.5t68 -27.5q30 0 45.5 16t15.5 31z" />
<glyph unicode="&#xd6;" horiz-adv-x="622" d="M151 827q0 24 17 41t41 17q25 0 42 -17t17 -41t-17 -40.5t-42 -16.5q-24 0 -41 16.5t-17 40.5zM355 827q0 24 17 41t42 17q24 0 41.5 -17t17.5 -41t-17.5 -40.5t-41.5 -16.5q-25 0 -42 16.5t-17 40.5zM311 -8q-139 0 -203.5 87.5t-64.5 279.5q0 193 64.5 283t203.5 90 t203.5 -90t64.5 -283q0 -192 -64.5 -279.5t-203.5 -87.5zM311 77q90 0 131 67t41 215q0 150 -41 219t-131 69t-131 -69t-41 -219q0 -148 41 -215t131 -67z" />
<glyph unicode="&#xd7;" horiz-adv-x="595" d="M99 126l-57 61l196 194l-196 195l57 61l198 -197l199 197l57 -61l-196 -195l196 -194l-57 -61l-199 196z" />
<glyph unicode="&#xd8;" horiz-adv-x="622" d="M311 -8q-104 0 -164 47l-24 -39h-88l60 97q-52 87 -52 262q0 193 64.5 283t203.5 90q94 0 153 -41l27 44h90l-62 -100q60 -89 60 -276q0 -192 -64.5 -279.5t-203.5 -87.5zM311 77q90 0 131 67t41 215q0 115 -25 183l-262 -421q41 -44 115 -44zM139 359q0 -100 18 -163 l258 415q-39 36 -104 36q-90 0 -131 -69t-41 -219z" />
<glyph unicode="&#xd9;" horiz-adv-x="625" d="M467 724h95v-474q0 -121 -62 -189.5t-188 -68.5q-127 0 -188 68.5t-61 189.5v474h95v-466q0 -82 40.5 -131.5t113.5 -49.5q74 0 114.5 49.5t40.5 131.5v466zM156 945h112l80 -172h-73z" />
<glyph unicode="&#xda;" horiz-adv-x="625" d="M358 945h112l-119 -172h-73zM467 724h95v-474q0 -121 -62 -189.5t-188 -68.5q-127 0 -188 68.5t-61 189.5v474h95v-466q0 -82 40.5 -131.5t113.5 -49.5q74 0 114.5 49.5t40.5 131.5v466z" />
<glyph unicode="&#xdb;" horiz-adv-x="625" d="M257 945h110l87 -172h-65l-77 112l-78 -112h-64zM467 724h95v-474q0 -121 -62 -189.5t-188 -68.5q-127 0 -188 68.5t-61 189.5v474h95v-466q0 -82 40.5 -131.5t113.5 -49.5q74 0 114.5 49.5t40.5 131.5v466z" />
<glyph unicode="&#xdc;" horiz-adv-x="625" d="M152 827q0 24 17 41t41 17q25 0 42 -17t17 -41t-17 -40.5t-42 -16.5q-24 0 -41 16.5t-17 40.5zM356 827q0 24 17 41t42 17q24 0 41.5 -17t17.5 -41t-17.5 -40.5t-41.5 -16.5q-25 0 -42 16.5t-17 40.5zM467 724h95v-474q0 -121 -62 -189.5t-188 -68.5q-127 0 -188 68.5 t-61 189.5v474h95v-466q0 -82 40.5 -131.5t113.5 -49.5q74 0 114.5 49.5t40.5 131.5v466z" />
<glyph unicode="&#xdd;" horiz-adv-x="569" d="M21 724h105l161 -338l163 338h98l-217 -438v-286h-95v286zM331 945h112l-119 -172h-73z" />
<glyph unicode="&#xde;" horiz-adv-x="596" d="M68 726h95v-148h133q270 0 270 -223q0 -110 -74 -165.5t-198 -55.5h-131v-132h-95v724zM292 494h-129v-276h132q82 0 129.5 33.5t47.5 104.5t-48.5 104.5t-131.5 33.5z" />
<glyph unicode="&#xdf;" horiz-adv-x="574" d="M290 649q-69 0 -102.5 -41t-33.5 -101v-507h-95v515q0 100 58.5 158.5t165.5 58.5q109 0 170.5 -51t61.5 -137q0 -126 -122 -164q68 -19 107 -66.5t39 -117.5q0 -97 -59 -150.5t-168 -53.5q-14 0 -33.5 2.5t-20.5 2.5v77q30 -5 47 -5q63 0 101.5 36t38.5 97 q0 129 -170 129h-19v80h15q68 0 109 29t41 88q0 58 -36.5 89.5t-94.5 31.5z" />
<glyph unicode="&#xe0;" horiz-adv-x="492" d="M339 259h3v69q0 45 -28 71t-85 26q-111 0 -111 -89l-75 16q0 25 6.5 47t24 47.5t57.5 40.5t99 15q104 0 150.5 -44.5t46.5 -118.5v-236q0 -33 28 -33l23 4v-70q-18 -9 -55 -9q-34 0 -51.5 18t-17.5 42v2h-3q-1 -3 -4 -7t-13.5 -14.5t-24.5 -19t-38.5 -15t-53.5 -6.5 q-84 0 -132.5 44t-48.5 110q0 64 49.5 108t132.5 44q41 0 71 -10.5t40 -20.5zM224 68q58 0 88.5 22t30.5 58q0 37 -29.5 59.5t-89.5 22.5q-48 0 -76 -24t-28 -58q0 -33 28 -56.5t76 -23.5zM73 753h112l80 -172h-73z" />
<glyph unicode="&#xe1;" horiz-adv-x="492" d="M339 259h3v69q0 45 -28 71t-85 26q-111 0 -111 -89l-75 16q0 25 6.5 47t24 47.5t57.5 40.5t99 15q104 0 150.5 -44.5t46.5 -118.5v-236q0 -33 28 -33l23 4v-70q-18 -9 -55 -9q-34 0 -51.5 18t-17.5 42v2h-3q-1 -3 -4 -7t-13.5 -14.5t-24.5 -19t-38.5 -15t-53.5 -6.5 q-84 0 -132.5 44t-48.5 110q0 64 49.5 108t132.5 44q41 0 71 -10.5t40 -20.5zM224 68q58 0 88.5 22t30.5 58q0 37 -29.5 59.5t-89.5 22.5q-48 0 -76 -24t-28 -58q0 -33 28 -56.5t76 -23.5zM274 753h112l-119 -172h-73z" />
<glyph unicode="&#xe2;" horiz-adv-x="492" d="M339 259h3v69q0 45 -28 71t-85 26q-111 0 -111 -89l-75 16q0 25 6.5 47t24 47.5t57.5 40.5t99 15q104 0 150.5 -44.5t46.5 -118.5v-236q0 -33 28 -33l23 4v-70q-18 -9 -55 -9q-34 0 -51.5 18t-17.5 42v2h-3q-1 -3 -4 -7t-13.5 -14.5t-24.5 -19t-38.5 -15t-53.5 -6.5 q-84 0 -132.5 44t-48.5 110q0 64 49.5 108t132.5 44q41 0 71 -10.5t40 -20.5zM224 68q58 0 88.5 22t30.5 58q0 37 -29.5 59.5t-89.5 22.5q-48 0 -76 -24t-28 -58q0 -33 28 -56.5t76 -23.5zM190 753h110l87 -172h-65l-77 112l-78 -112h-64z" />
<glyph unicode="&#xe3;" horiz-adv-x="492" d="M339 259h3v69q0 45 -28 71t-85 26q-111 0 -111 -89l-75 16q0 25 6.5 47t24 47.5t57.5 40.5t99 15q104 0 150.5 -44.5t46.5 -118.5v-236q0 -33 28 -33l23 4v-70q-18 -9 -55 -9q-34 0 -51.5 18t-17.5 42v2h-3q-1 -3 -4 -7t-13.5 -14.5t-24.5 -19t-38.5 -15t-53.5 -6.5 q-84 0 -132.5 44t-48.5 110q0 64 49.5 108t132.5 44q41 0 71 -10.5t40 -20.5zM224 68q58 0 88.5 22t30.5 58q0 37 -29.5 59.5t-89.5 22.5q-48 0 -76 -24t-28 -58q0 -33 28 -56.5t76 -23.5zM357 686h60q0 -34 -29 -71t-91 -37q-36 0 -81 27.5t-67 27.5t-34 -13t-12 -29h-59 q0 38 26.5 70.5t77.5 32.5q33 0 80 -27.5t68 -27.5q30 0 45.5 16t15.5 31z" />
<glyph unicode="&#xe4;" horiz-adv-x="492" d="M339 259h3v69q0 45 -28 71t-85 26q-111 0 -111 -89l-75 16q0 25 6.5 47t24 47.5t57.5 40.5t99 15q104 0 150.5 -44.5t46.5 -118.5v-236q0 -33 28 -33l23 4v-70q-18 -9 -55 -9q-34 0 -51.5 18t-17.5 42v2h-3q-1 -3 -4 -7t-13.5 -14.5t-24.5 -19t-38.5 -15t-53.5 -6.5 q-84 0 -132.5 44t-48.5 110q0 64 49.5 108t132.5 44q41 0 71 -10.5t40 -20.5zM224 68q58 0 88.5 22t30.5 58q0 37 -29.5 59.5t-89.5 22.5q-48 0 -76 -24t-28 -58q0 -33 28 -56.5t76 -23.5zM69 635q0 24 17 41t41 17q25 0 42 -17t17 -41t-17 -40.5t-42 -16.5q-24 0 -41 16.5 t-17 40.5zM273 635q0 24 17 41t42 17q24 0 41.5 -17t17.5 -41t-17.5 -40.5t-41.5 -16.5q-25 0 -42 16.5t-17 40.5z" />
<glyph unicode="&#xe5;" horiz-adv-x="492" d="M339 259h3v69q0 45 -28 71t-85 26q-111 0 -111 -89l-75 16q0 25 6.5 47t24 47.5t57.5 40.5t99 15q104 0 150.5 -44.5t46.5 -118.5v-236q0 -33 28 -33l23 4v-70q-18 -9 -55 -9q-34 0 -51.5 18t-17.5 42v2h-3q-1 -3 -4 -7t-13.5 -14.5t-24.5 -19t-38.5 -15t-53.5 -6.5 q-84 0 -132.5 44t-48.5 110q0 64 49.5 108t132.5 44q41 0 71 -10.5t40 -20.5zM224 68q58 0 88.5 22t30.5 58q0 37 -29.5 59.5t-89.5 22.5q-48 0 -76 -24t-28 -58q0 -33 28 -56.5t76 -23.5zM136 671q0 39 28 67t66 28q39 0 67 -28t28 -67q0 -38 -28 -65.5t-67 -27.5 q-38 0 -66 27.5t-28 65.5zM191 671q0 -15 11.5 -26.5t27.5 -11.5t28 11.5t12 26.5q0 17 -12 28.5t-28 11.5t-27.5 -12t-11.5 -28z" />
<glyph unicode="&#xe6;" horiz-adv-x="778" d="M673 152l74 -11q1 -59 -47 -102.5t-143 -43.5q-122 0 -171 81h-1q-1 -3 -4 -8.5t-16 -19.5t-30 -24.5t-48 -19.5t-69 -9q-85 0 -133.5 44t-48.5 109t49.5 109t132.5 44q41 0 71 -10.5t40 -20.5l10 -11h4v69q0 45 -28.5 71t-85.5 26q-37 0 -61.5 -9.5t-34 -25.5 t-12.5 -28.5t-2 -25.5l-76 16q0 25 6.5 47t24 47.5t57.5 40.5t99 15q117 0 166 -61q49 61 160 61t152 -65.5t41 -188.5v-11h-314l3 -31q13 -136 119 -136q57 0 86.5 25t29.5 57zM224 68q59 0 89 22.5t30 57.5q0 37 -29.5 59.5t-89.5 22.5q-48 0 -76 -24t-28 -58 q0 -33 28 -56.5t76 -23.5zM557 428q-58 0 -87 -32t-34 -97h232q-3 63 -27 96t-84 33z" />
<glyph unicode="&#xe7;" horiz-adv-x="473" d="M201 -91l21 87q-94 5 -138.5 65t-44.5 185q0 133 50.5 194.5t156.5 61.5q107 0 149.5 -47.5t42.5 -127.5l-82 -16q0 114 -110 114q-62 0 -91 -42.5t-29 -136.5q0 -92 29 -134t91 -42q61 0 85.5 29t24.5 83l81 -13q0 -157 -154 -172l-13 -38q82 -14 82 -88 q0 -44 -34.5 -67t-82.5 -23q-60 0 -87.5 28t-27.5 66l58 10q0 -20 14.5 -33t44.5 -13q23 0 37.5 9.5t14.5 26.5t-12.5 28.5t-37.5 11.5q-23 0 -38 -6z" />
<glyph unicode="&#xe8;" horiz-adv-x="476" d="M362 152l75 -11q0 -59 -48 -102.5t-143 -43.5q-107 0 -157 59.5t-50 190.5q0 133 50.5 195t156.5 62q58 0 97 -18.5t59 -54.5t28 -79t8 -102v-11h-312q1 -87 30 -127t90 -40q57 0 86.5 25t29.5 57zM246 428q-54 0 -82.5 -30.5t-35.5 -98.5h229q-3 63 -27 96t-84 33z M91 753h112l80 -172h-73z" />
<glyph unicode="&#xe9;" horiz-adv-x="476" d="M289 753h112l-119 -172h-73zM362 152l75 -11q0 -59 -48 -102.5t-143 -43.5q-107 0 -157 59.5t-50 190.5q0 133 50.5 195t156.5 62q58 0 97 -18.5t59 -54.5t28 -79t8 -102v-11h-312q1 -87 30 -127t90 -40q57 0 86.5 25t29.5 57zM246 428q-54 0 -82.5 -30.5t-35.5 -98.5 h229q-3 63 -27 96t-84 33z" />
<glyph unicode="&#xea;" horiz-adv-x="476" d="M192 753h110l87 -172h-65l-77 112l-78 -112h-64zM362 152l75 -11q0 -59 -48 -102.5t-143 -43.5q-107 0 -157 59.5t-50 190.5q0 133 50.5 195t156.5 62q58 0 97 -18.5t59 -54.5t28 -79t8 -102v-11h-312q1 -87 30 -127t90 -40q57 0 86.5 25t29.5 57zM246 428 q-54 0 -82.5 -30.5t-35.5 -98.5h229q-3 63 -27 96t-84 33z" />
<glyph unicode="&#xeb;" horiz-adv-x="476" d="M87 635q0 24 17 41t41 17q25 0 42 -17t17 -41t-17 -40.5t-42 -16.5q-24 0 -41 16.5t-17 40.5zM291 635q0 24 17 41t42 17q24 0 41.5 -17t17.5 -41t-17.5 -40.5t-41.5 -16.5q-25 0 -42 16.5t-17 40.5zM362 152l75 -11q0 -59 -48 -102.5t-143 -43.5q-107 0 -157 59.5 t-50 190.5q0 133 50.5 195t156.5 62q58 0 97 -18.5t59 -54.5t28 -79t8 -102v-11h-312q1 -87 30 -127t90 -40q57 0 86.5 25t29.5 57zM246 428q-54 0 -82.5 -30.5t-35.5 -98.5h229q-3 63 -27 96t-84 33z" />
<glyph unicode="&#xec;" horiz-adv-x="203" d="M60 496h83v-496h-83v496zM-56 753h112l80 -172h-73z" />
<glyph unicode="&#xed;" horiz-adv-x="203" d="M148 753h112l-119 -172h-73zM60 496h83v-496h-83v496z" />
<glyph unicode="&#xee;" horiz-adv-x="203" d="M46 753h110l87 -172h-65l-77 112l-78 -112h-64zM60 496h83v-496h-83v496z" />
<glyph unicode="&#xef;" horiz-adv-x="203" d="M-58 635q0 24 17 41t41 17q25 0 42 -17t17 -41t-17 -40.5t-42 -16.5q-24 0 -41 16.5t-17 40.5zM146 635q0 24 17 41t42 17q24 0 41.5 -17t17.5 -41t-17.5 -40.5t-41.5 -16.5q-25 0 -42 16.5t-17 40.5zM60 496h83v-496h-83v496z" />
<glyph unicode="&#xf0;" horiz-adv-x="573" d="M419 746l33 -51l-64 -45q66 -66 105.5 -156t39.5 -181q0 -321 -253 -321q-113 0 -178.5 64t-65.5 164q0 99 64 159t161 60q61 0 106.5 -25.5t66.5 -60.5q-8 69 -42 131.5t-86 107.5l-112 -78l-34 51l94 65q-71 42 -141 42l40 89q95 0 188 -70zM282 78q139 0 153 189 q-10 44 -52.5 76.5t-98.5 32.5q-63 0 -105.5 -41t-42.5 -107q0 -64 40 -107t106 -43z" />
<glyph unicode="&#xf1;" horiz-adv-x="513" d="M456 0h-85v313q0 112 -110 112q-57 0 -86.5 -34t-29.5 -73v-318h-85v496h77v-74h3q6 14 17.5 29t46 33t80.5 18q89 0 130.5 -48t41.5 -124v-330zM383 690h60q0 -34 -29 -71t-91 -37q-36 0 -81 27.5t-67 27.5t-34 -13t-12 -29h-59q0 38 26.5 70.5t77.5 32.5q33 0 80 -27.5 t68 -27.5q30 0 45.5 16t15.5 31z" />
<glyph unicode="&#xf2;" horiz-adv-x="491" d="M246 -5q-107 0 -157 60t-50 191q0 132 50 194t157 62q106 0 155.5 -62t49.5 -194t-49 -191.5t-156 -59.5zM246 70q62 0 91 42t29 134q0 93 -29 136t-91 43t-91 -42.5t-29 -136.5q0 -92 29 -134t91 -42zM89 753h112l80 -172h-73z" />
<glyph unicode="&#xf3;" horiz-adv-x="491" d="M289 753h112l-119 -172h-73zM246 -5q-107 0 -157 60t-50 191q0 132 50 194t157 62q106 0 155.5 -62t49.5 -194t-49 -191.5t-156 -59.5zM246 70q62 0 91 42t29 134q0 93 -29 136t-91 43t-91 -42.5t-29 -136.5q0 -92 29 -134t91 -42z" />
<glyph unicode="&#xf4;" horiz-adv-x="491" d="M190 753h110l87 -172h-65l-77 112l-78 -112h-64zM246 -5q-107 0 -157 60t-50 191q0 132 50 194t157 62q106 0 155.5 -62t49.5 -194t-49 -191.5t-156 -59.5zM246 70q62 0 91 42t29 134q0 93 -29 136t-91 43t-91 -42.5t-29 -136.5q0 -92 29 -134t91 -42z" />
<glyph unicode="&#xf5;" horiz-adv-x="491" d="M246 -5q-107 0 -157 60t-50 191q0 132 50 194t157 62q106 0 155.5 -62t49.5 -194t-49 -191.5t-156 -59.5zM246 70q62 0 91 42t29 134q0 93 -29 136t-91 43t-91 -42.5t-29 -136.5q0 -92 29 -134t91 -42zM372 686h60q0 -34 -29 -71t-91 -37q-36 0 -81 27.5t-67 27.5 t-34 -13t-12 -29h-59q0 38 26.5 70.5t77.5 32.5q33 0 80 -27.5t68 -27.5q30 0 45.5 16t15.5 31z" />
<glyph unicode="&#xf6;" horiz-adv-x="491" d="M85 635q0 24 17 41t41 17q25 0 42 -17t17 -41t-17 -40.5t-42 -16.5q-24 0 -41 16.5t-17 40.5zM289 635q0 24 17 41t42 17q24 0 41.5 -17t17.5 -41t-17.5 -40.5t-41.5 -16.5q-25 0 -42 16.5t-17 40.5zM246 -5q-107 0 -157 60t-50 191q0 132 50 194t157 62q106 0 155.5 -62 t49.5 -194t-49 -191.5t-156 -59.5zM246 70q62 0 91 42t29 134q0 93 -29 136t-91 43t-91 -42.5t-29 -136.5q0 -92 29 -134t91 -42z" />
<glyph unicode="&#xf7;" horiz-adv-x="502" d="M460 364v-77h-420v77h420zM185 62q0 29 20 49.5t48 20.5q29 0 49 -20.5t20 -49.5t-20 -48.5t-49 -19.5t-48.5 20t-19.5 48zM185 570q0 29 20 49.5t48 20.5q29 0 49 -20.5t20 -49.5t-20 -48.5t-49 -19.5t-48.5 20t-19.5 48z" />
<glyph unicode="&#xf8;" horiz-adv-x="491" d="M246 -5q-66 0 -109 21l-11 -16h-81l40 60q-46 61 -46 186q0 132 50 194t157 62q65 0 109 -23l11 17h83l-42 -63q44 -62 44 -187q0 -132 -49 -191.5t-156 -59.5zM126 246q0 -64 13 -103l170 266q-25 16 -63 16q-62 0 -91 -42.5t-29 -136.5zM246 70q62 0 91 42t29 134 q0 62 -14 104l-170 -265q26 -15 64 -15z" />
<glyph unicode="&#xf9;" horiz-adv-x="512" d="M452 0h-77v75h-4q-4 -13 -16 -28.5t-46.5 -33.5t-81.5 -18q-89 0 -130 47.5t-41 123.5v330h86v-312q0 -113 107 -113q57 0 87 34t30 74v317h86v-496zM95 753h112l80 -172h-73z" />
<glyph unicode="&#xfa;" horiz-adv-x="512" d="M299 753h112l-119 -172h-73zM452 0h-77v75h-4q-4 -13 -16 -28.5t-46.5 -33.5t-81.5 -18q-89 0 -130 47.5t-41 123.5v330h86v-312q0 -113 107 -113q57 0 87 34t30 74v317h86v-496z" />
<glyph unicode="&#xfb;" horiz-adv-x="512" d="M199 753h110l87 -172h-65l-77 112l-78 -112h-64zM452 0h-77v75h-4q-4 -13 -16 -28.5t-46.5 -33.5t-81.5 -18q-89 0 -130 47.5t-41 123.5v330h86v-312q0 -113 107 -113q57 0 87 34t30 74v317h86v-496z" />
<glyph unicode="&#xfc;" horiz-adv-x="512" d="M94 635q0 24 17 41t41 17q25 0 42 -17t17 -41t-17 -40.5t-42 -16.5q-24 0 -41 16.5t-17 40.5zM298 635q0 24 17 41t42 17q24 0 41.5 -17t17.5 -41t-17.5 -40.5t-41.5 -16.5q-25 0 -42 16.5t-17 40.5zM452 0h-77v75h-4q-4 -13 -16 -28.5t-46.5 -33.5t-81.5 -18 q-89 0 -130 47.5t-41 123.5v330h86v-312q0 -113 107 -113q57 0 87 34t30 74v317h86v-496z" />
<glyph unicode="&#xfd;" horiz-adv-x="470" d="M43 -203v77q23 -8 56 -8t52 14t29 46l24 74h-15l-169 496h96l122 -375l123 375h90l-150 -438l-46 -142q-21 -64 -55 -95.5t-92 -31.5q-18 0 -34 2t-24 4zM283 753h112l-119 -172h-73z" />
<glyph unicode="&#xfe;" horiz-adv-x="488" d="M145 -198h-85v932h81v-296h4q9 22 43 43.5t87 21.5q187 0 187 -254t-188 -254q-52 0 -83.5 19t-40.5 42h-5v-254zM137 248q0 -178 125 -178q61 0 88 43.5t27 134.5q0 90 -27.5 133.5t-87.5 43.5q-68 0 -96.5 -44t-28.5 -133z" />
<glyph unicode="&#xff;" horiz-adv-x="470" d="M43 -203v77q23 -8 56 -8t52 14t29 46l24 74h-15l-169 496h96l122 -375l123 375h90l-150 -438l-46 -142q-21 -64 -55 -95.5t-92 -31.5q-18 0 -34 2t-24 4zM78 635q0 24 17 41t41 17q25 0 42 -17t17 -41t-17 -40.5t-42 -16.5q-24 0 -41 16.5t-17 40.5zM282 635q0 24 17 41 t42 17q24 0 41.5 -17t17.5 -41t-17.5 -40.5t-41.5 -16.5q-25 0 -42 16.5t-17 40.5z" />
<glyph unicode="&#x152;" horiz-adv-x="958" d="M311 -8q-141 0 -206.5 91.5t-65.5 294.5q0 176 65.5 265t206.5 89q108 0 178 -75v67h436v-83h-341v-231h283v-84h-283v-243h341v-83h-436v52q-66 -60 -178 -60zM311 77q92 0 134 66.5t42 197.5q0 159 -42.5 232.5t-133.5 73.5q-176 0 -176 -268q0 -159 42 -230.5 t134 -71.5z" />
<glyph unicode="&#x153;" horiz-adv-x="808" d="M245 -5q-108 0 -158.5 62t-50.5 200q0 122 51 183.5t158 61.5q106 0 163 -85q54 85 169 85q111 0 152 -65.5t41 -188.5v-11h-314l3 -31q13 -136 118 -136q57 0 87 25t30 57l74 -11q0 -59 -48 -102.5t-143 -43.5q-109 0 -165 84q-55 -84 -167 -84zM245 70q122 0 122 167 q0 98 -30 143t-92 45q-121 0 -121 -168q0 -99 29 -143t92 -44zM578 428q-113 0 -122 -129h232q-3 63 -26.5 96t-83.5 33z" />
<glyph unicode="&#x178;" horiz-adv-x="569" d="M21 724h105l161 -338l163 338h98l-217 -438v-286h-95v286zM127 827q0 24 17 41t41 17q25 0 42 -17t17 -41t-17 -40.5t-42 -16.5q-24 0 -41 16.5t-17 40.5zM331 827q0 24 17 41t42 17q24 0 41.5 -17t17.5 -41t-17.5 -40.5t-41.5 -16.5q-25 0 -42 16.5t-17 40.5z" />
<glyph unicode="&#x2c6;" horiz-adv-x="468" d="M182 753h110l87 -172h-65l-77 112l-78 -112h-64z" />
<glyph unicode="&#x2dc;" horiz-adv-x="439" d="M341 690h60q0 -34 -29 -71t-91 -37q-36 0 -81 27.5t-67 27.5t-34 -13t-12 -29h-59q0 38 26.5 70.5t77.5 32.5q33 0 80 -27.5t68 -27.5q30 0 45.5 16t15.5 31z" />
<glyph unicode="&#x2000;" horiz-adv-x="479" />
<glyph unicode="&#x2001;" horiz-adv-x="958" />
<glyph unicode="&#x2002;" horiz-adv-x="479" />
<glyph unicode="&#x2003;" horiz-adv-x="958" />
<glyph unicode="&#x2004;" horiz-adv-x="319" />
<glyph unicode="&#x2005;" horiz-adv-x="239" />
<glyph unicode="&#x2006;" horiz-adv-x="159" />
<glyph unicode="&#x2007;" horiz-adv-x="159" />
<glyph unicode="&#x2008;" horiz-adv-x="119" />
<glyph unicode="&#x2009;" horiz-adv-x="191" />
<glyph unicode="&#x200a;" horiz-adv-x="53" />
<glyph unicode="&#x2010;" horiz-adv-x="516" d="M461 346v-77h-405v77h405z" />
<glyph unicode="&#x2011;" horiz-adv-x="516" d="M461 346v-77h-405v77h405z" />
<glyph unicode="&#x2012;" horiz-adv-x="516" d="M461 346v-77h-405v77h405z" />
<glyph unicode="&#x2013;" horiz-adv-x="587" d="M532 346v-77h-476v77h476z" />
<glyph unicode="&#x2014;" horiz-adv-x="927" d="M871 346v-77h-815v77h815z" />
<glyph unicode="&#x2018;" horiz-adv-x="210" d="M176 630q0 -29 -20 -49.5t-48 -20.5q-29 0 -49 20.5t-20 49.5v63q0 133 101 133l26 -4v-45q-10 3 -27 3q-52 0 -52 -60v-25q11 3 21 3q28 0 48 -20t20 -48z" />
<glyph unicode="&#x2019;" horiz-adv-x="213" d="M38 756q0 29 20 49.5t48 20.5q29 0 49 -20.5t20 -49.5v-63q0 -133 -101 -133l-26 4v45q10 -3 27 -3q52 0 52 60v25q-11 -3 -21 -3q-28 0 -48 20t-20 48z" />
<glyph unicode="&#x201a;" horiz-adv-x="219" d="M39 63q0 29 20 49.5t48 20.5q29 0 49 -20.5t20 -49.5v-63q0 -133 -101 -133l-26 4v45q10 -3 27 -3q52 0 52 60v25q-10 -3 -21 -3q-29 0 -48.5 19.5t-19.5 48.5z" />
<glyph unicode="&#x201c;" horiz-adv-x="393" d="M176 630q0 -29 -20 -49.5t-48 -20.5q-29 0 -49 20.5t-20 49.5v63q0 133 101 133l26 -4v-45q-10 3 -27 3q-52 0 -52 -60v-25q11 3 21 3q28 0 48 -20t20 -48zM359 630q0 -29 -20 -49.5t-48 -20.5q-29 0 -49 20.5t-20 49.5v63q0 133 101 133l26 -4v-45q-10 3 -27 3 q-52 0 -52 -60v-25q10 3 21 3q29 0 48.5 -20t19.5 -48z" />
<glyph unicode="&#x201d;" horiz-adv-x="396" d="M38 756q0 29 20 49.5t48 20.5q29 0 49 -20.5t20 -49.5v-63q0 -133 -101 -133l-26 4v45q10 -3 27 -3q52 0 52 60v25q-11 -3 -21 -3q-28 0 -48 20t-20 48zM221 756q0 29 20 49.5t48 20.5q29 0 49 -20.5t20 -49.5v-63q0 -133 -101 -133l-26 4v45q10 -3 27 -3q52 0 52 60v25 q-10 -3 -21 -3q-29 0 -48.5 20t-19.5 48z" />
<glyph unicode="&#x201e;" horiz-adv-x="401" d="M38 63q0 29 20 49.5t48 20.5q29 0 49 -20.5t20 -49.5v-63q0 -133 -101 -133l-26 4v45q10 -3 27 -3q52 0 52 60v25q-11 -3 -21 -3q-28 0 -48 19.5t-20 48.5zM221 63q0 29 20 49.5t48 20.5q29 0 49 -20.5t20 -49.5v-63q0 -133 -101 -133l-26 4v45q10 -3 27 -3q52 0 52 60 v25q-10 -3 -21 -3q-29 0 -48.5 19.5t-19.5 48.5z" />
<glyph unicode="&#x2022;" horiz-adv-x="330" d="M64 345q0 41 29.5 70t72.5 29q41 0 71 -29t30 -70q0 -42 -29.5 -71t-71.5 -29q-43 0 -72.5 29t-29.5 71z" />
<glyph unicode="&#x2026;" horiz-adv-x="765" d="M39 64q0 29 20.5 50t49.5 21t49.5 -21t20.5 -50t-20.5 -49t-49.5 -20t-49.5 20t-20.5 49zM313 64q0 29 20.5 50t48.5 21q30 0 50.5 -21t20.5 -50t-20.5 -49t-50.5 -20q-29 0 -49 20t-20 49zM587 64q0 29 20 50t49 21t49.5 -21t20.5 -50t-20.5 -49t-49.5 -20t-49 20 t-20 49z" />
<glyph unicode="&#x202f;" horiz-adv-x="191" />
<glyph unicode="&#x205f;" horiz-adv-x="239" />
<glyph unicode="&#x20ac;" horiz-adv-x="561" d="M455 473v-73h-248q-2 -12 -2 -37t3 -47h193v-73h-173q34 -78 109 -122t183 -44v-86q-150 0 -253 68.5t-140 183.5h-92v73h76q-2 30 -2 47q0 25 1 37h-75v73h89q35 118 138.5 188t257.5 70v-86q-112 0 -188.5 -45.5t-107.5 -126.5h231z" />
<glyph unicode="&#x2122;" horiz-adv-x="845" d="M587 412l-117 167v-289h-76v434h62l131 -199l133 199h63v-434h-76v289zM350 724v-67h-116v-367h-76v367h-114v67h306z" />
<glyph unicode="&#x25fc;" horiz-adv-x="495" d="M0 495h495v-495h-495v495z" />
</font>
</defs>
</svg>
