<svg height="78" viewBox="0 0 85 78" width="85" xmlns="http://www.w3.org/2000/svg" xmlns:xlink="http://www.w3.org/1999/xlink"><mask id="a" fill="#fff"><path d="m0 0h84v78h-84z" fill="#fff" fill-rule="evenodd"/></mask><g fill="#1a1919" fill-rule="evenodd" transform="translate(.651 .0155)"><path d="m16.913571 21.5388412c2.894754-2.3993221 5.1463915-3.5388412 9.5596011-3.5388412 3.3088118 0 8.457881 1.119511 12.3173094 5.1199504 4.0434542-4.0004394 6.4338413-4.9612981 11.9504751-4.9612981 7.1687271 0 15.2590434 5.7609152 15.2590434 13.9216233v45.9197244h-16.915275v-46.4006246c0-1.1204525-1.4702585-2.5598575-3.6771067-2.5598575-2.2041706 0-4.0429673.9599172-4.0429673 2.5598575v46.4006246h-16.9147882v-46.4006246c0-1.7592988-1.8370928-3.0391099-3.6758896-3.0391099-1.8375797 0-3.8604022 1.4391696-3.8604022 2.7199222v46.7198123h-16.913571v-59.5195707h16.913571z" mask="url(#a)"/><path d="m76.821198 10.9845c-3.883146 0-5.8046671-2.60624927-7.472198-4.57601471 1.709709-1.8873854 3.9197924-3.40062816 5.7306826-3.42269424 5.3953326-.07134699 6.1808122 2.83205883 6.2663207 4.33083604.0578508.9988579-.696053 3.66787291-4.5248053 3.66787291zm-18.2259939-.0317669c-5.3611159.3846615-6.1568096-2.82207241-6.2431533-4.31626875-.0583279-.99474693.6937347-3.65196435 4.5091609-3.65196435 3.8808729 0 5.8233761 2.6992249 7.4877883 4.66307466-1.7330738 1.47832142-2.8187997 3.09365564-5.7537959 3.30515844zm18.0306583-9.67297058c-4.9929823 0-7.2647422 2.26738569-8.5966743 3.35312407-1.7623536-2.10040577-4.1956097-4.64838659-9.4239016-4.64838659-6.7461679 0-8.2562865 4.59772699-8.2562865 6.35163098 0 2.08933935 1.3331075 6.37942002 7.7238428 6.35163102 4.85946-.0206574 7.2936564-2.2083648 8.6262938-3.29410322 1.7600027 2.08417502 4.2256991 4.59084122 9.3952224 4.59084122 6.7459329 0 8.254641-4.59674331 8.254641-6.35261466 0-2.08958527-1.3319321-6.35212282-7.7231376-6.35212282z" mask="url(#a)"/></g></svg>