<svg height="107" viewBox="0 0 269 107" width="269" xmlns="http://www.w3.org/2000/svg" xmlns:xlink="http://www.w3.org/1999/xlink"><linearGradient id="a" x1="50.029205%" x2="50.029205%" y1="-.002265%" y2="99.928228%"><stop offset="0" stop-color="#fff" stop-opacity=".3"/><stop offset=".02" stop-color="#fff" stop-opacity=".28"/><stop offset=".28" stop-color="#fff" stop-opacity=".13"/><stop offset=".48" stop-color="#fff" stop-opacity=".04"/><stop offset=".6" stop-color="#fff" stop-opacity="0"/></linearGradient><linearGradient id="b" x1="50.018261%" x2="50.018261%" y1=".024308%" y2="100.001075%"><stop offset="0" stop-color="#fff" stop-opacity=".2"/><stop offset=".14" stop-color="#fff" stop-opacity=".13"/><stop offset=".36" stop-color="#fff" stop-opacity=".04"/><stop offset=".5" stop-color="#fff" stop-opacity="0"/></linearGradient><g fill="none"><path d="m0 0h269v107h-269z" fill="#d33a2c"/><ellipse cx="51.75" cy="77.2" fill="#000" opacity=".05" rx="24.63" ry="3.38"/><path d="m126.45 11.65c-.028991-5.02924719 3.389797-9.42418071 8.271608-10.63334947s9.956667 1.08198629 12.278392 5.54334947l-4 1.3c-1.628456-2.41673989-4.619094-3.52252745-7.428065-2.74652538-2.808972.77600207-4.80785 3.26018536-4.96476 6.17014758-.156909 2.9099622 1.563253 5.594682 4.272494 6.6682347 2.709241 1.0735528 5.801444.2957615 7.680331-1.9318569l-2.38.39-2.89-2.89 6.22-1 6.23-1-1 6.22-1 6.22-2.97-2.96.28-1.71c-3.11099 3.1187713-7.794493 4.0561441-11.866167 2.3749366-4.071675-1.6812075-6.729477-5.6498291-6.733833-10.0549366zm-125.85 3.24c-.05104183 1.1716342.19309794 2.3373157.71 3.39.47596148.9274603 1.16056969 1.7318749 2 2.35.87772602.6375739 1.86864699 1.1024923 2.92 1.37 1.11531816.2994049 2.26519377.4507043 3.42.45 1.2878234.0241828 2.5720237-.1443475 3.81-.5 1.004944-.2837526 1.9455412-.7591447 2.77-1.4.7258831-.5806241 1.3048408-1.3240195 1.69-2.17.3815643-.8521926.5759346-1.7763039.57-2.71.0422734-1.0299267-.2297698-2.0483448-.78-2.92-.4557757-.7329034-1.0626037-1.3601861-1.78-1.84-.6464833-.4420206-1.3585369-.7794868-2.11-1-.5385059-.17829619-1.0859102-.32849857-1.64-.45l-3.25-.83c-.65901052-.1585278-1.30437651-.36919131-1.93-.63-.3665483-.14681723-.68507108-.39263371-.92-.71-.17040438-.30493352-.25344648-.65094228-.24-1-.0147842-.3981398.08968019-.79162233.3-1.13.19663762-.29207958.44792042-.54336238.74-.74.30727677-.19536521.64537579-.3373668 1-.42.37149042-.07905096.75019261-.11926713 1.13-.12.54272377-.01738222 1.0857606.02284273 1.62.12.4646497.08682049.9089579.25979543 1.31.51.3830629.24505147.6910419.59109527.89 1 .2469939.46009085.390345.96864583.42 1.49h4.52c.0357064-1.08696025-.2087946-2.16483124-.71-3.13-.4399928-.85481584-1.0818834-1.58938577-1.87-2.14-.8271453-.5712761-1.7579005-.9755092-2.74-1.19-1.0394245-.26298184-2.1078309-.39401281-3.18-.39-.96647279.00168476-1.92836316.13285162-2.86.39-.91712835.24177651-1.78395538.64471564-2.56 1.19-.75183252.52757179-1.38252301 1.20939934-1.85 2-.47348145.86639285-.70816037 1.84307131-.68 2.83-.02318677.86458889.16202733 1.72206155.54 2.5.3626864.6623527.86002042 1.2414403 1.46 1.7.61004785.4690896 1.28338491.849525 2 1.13.75913954.2835505 1.53370998.5239344 2.32.72.77.22 1.54.42 2.29.59.6805466.1630885 1.3488457.3736028 2 .63.5309122.1990192 1.0169897.5015429 1.43.89.3817648.3634762.5893075.8732301.57 1.4.0162964.4814102-.1318345.9540182-.42 1.34-.2718679.3355335-.6129719.6084167-1 .8-.4241335.2037403-.8754528.3451986-1.34.42-.4443721.0577188-.8919006.0877767-1.34.09-.61419653.0197861-1.22855605-.0339284-1.83-.16-.53990498-.1435445-1.05315073-.3731545-1.52-.68-.42061091-.3265236-.762381-.7434831-1-1.22-.27416012-.5630203-.40796983-1.1840346-.39-1.81zm51.88-9 2.68 7.8h-5.5zm-10.32 15.8v-20.99h-6.58l-4.76 14.61-5-14.61h-6.54v21.24h4.37l.06-14.94 5.21 14.91h3.6l5.27-15.06v15.09h9l1.67-4.73h7.94l1.6 4.73h4.85l-7.96-21.24h-4.79zm19.2-6.79c-.0479404 1.172487.1996473 2.3382124.72 3.39.4768701.926852 1.1613154 1.7310752 2 2.35.8786215.6338245 1.8694538 1.095308 2.92 1.36 1.1152954.299519 2.2651862.4508204 3.42.45 1.2877564.0229895 2.5717805-.1455176 3.81-.5 1.004944-.2837526 1.9455412-.7591447 2.77-1.4.7303376-.578679 1.3129594-1.3223786 1.7-2.17.3796214-.852473.5706432-1.7768819.56-2.71.0465305-1.0290192-.2221024-2.0477307-.77-2.92-.4591558-.7335478-1.069377-1.3608143-1.79-1.84-.6464001-.4421655-1.3584774-.7796429-2.11-1-.5383028-.1789667-1.0857426-.32917882-1.64-.45l-3.24-.83c-.663133-.16824894-1.3118427-.38894399-1.94-.66-.3662862-.14727562-.6846941-.39300347-.92-.71-.1704044-.30493352-.2534465-.65094228-.24-1-.0147842-.3981398.0896802-.79162233.3-1.13.1958438-.2927324.4472676-.5441562.74-.74.3070969-.19570881.6452564-.33773579 1-.42.3714904-.07905096.7501926-.11926713 1.13-.12.5304305-.00462746 1.0599164.04564019 1.58.15.4646497.08682049.9089579.25979543 1.31.51.3823891.24584034.6901802.591673.89 1 .2521852.45921467.40227.96745626.44 1.49h4.52c.0330783-1.08788184-.2149039-2.16591546-.72-3.13-.4389799-.85550356-1.0810661-1.59029737-1.87-2.14-.826894-.57172836-1.7577416-.97600157-2.74-1.19-1.0443668-.2504489-2.1161746-.36804536-3.19-.35-.9664728.00168476-1.9283632.13285162-2.86.39-.9171283.24177651-1.7839554.64471564-2.56 1.19-.7488211.5279593-1.3761643 1.2098541-1.84 2-.4734814.86639285-.7081604 1.84307131-.68 2.83-.0239759.86466228.1612782 1.72232042.54 2.5.3631731.66201579.860427 1.24101 1.46 1.7.6108526.4678731 1.2840116.848208 2 1.13.7593771.2828545 1.5339082.5232262 2.32.72.77.22 1.54.42 2.29.59.6806167.162835 1.3489335.3733548 2 .63.5311493.1985374 1.0173172.5011174 1.43.89.3770048.3659698.5806105.8749841.56 1.4.0147098.4811934-.133261.9532905-.42 1.34-.2718679.3355335-.6129719.6084167-1 .8-.4242358.203481-.8755168.3449273-1.34.42-.4443721.0577188-.8919006.0877767-1.34.09-.5994905-.0003788-1.1968805-.0708574-1.78-.21-.5400221-.1432136-1.0533194-.3728466-1.52-.68-.4196616-.3274971-.76124-.7442228-1-1.22-.2737836-.5631503-.4075731-1.1840711-.39-1.81zm18.68 7h4.67v-9.12h8.6v9.16h4.69v-21.24h-4.67v8.15h-8.6v-8.15h-4.73zm20.07 0h4.67v-21.2h-4.67zm6.81 0h4.37l.06-14.22 8.84 14.22h4.67v-21.2h-4.38l-.05 14.3-8.86-14.3h-4.64z" fill="#fff" transform="translate(92 33)"/><g fill="#fff" transform="translate(32 29)"><path d="m27.57 30.11c-2.1381665-1.5920277-4.4960769-2.8652994-7-3.78-1.8844806-.7615497-3.6815008-1.7237602-5.36-2.87-4-2.7866667-6-6.2433333-6-10.37-.09977387-2.485388.67519341-4.92706576 2.19-6.9.2667789-.33096501.5540069-.64491181.86-.94l-8.55 2c-2.48480047.5750499-4.03355969 3.0548551-3.46 5.54l7.08 30.59c.57519713 2.4799656 3.0482105 4.027276 5.53 3.46l3.5-.84-.27-.07c-2.3603576-.7257616-4.6339609-1.708307-6.78-2.93l3.69-8.16c2.9363043 2.3909722 6.6134443 3.6850426 10.4 3.66 4 0 6-1.43 6-4.27.0392566-1.5783831-.6325742-3.09092-1.83-4.12z"/><path d="m46.91 34.22-7.08-30.59c-.5751971-2.47996563-3.0482105-4.02727597-5.53-3.46l-5.15 1.19c.5933333.09333333 1.18.20333333 1.76.33 2.3083161.51397204 4.5426074 1.31697295 6.65 2.39l-3 8c-2.24-1.92-5.37-2.88-9.37-2.88-3.5866667 0-5.3833333 1.4266667-5.39 4.28.0796174 1.2244929.7366946 2.338183 1.77 3 2.3721418 1.5043775 4.9086414 2.7323654 7.56 3.66 2.3011769.8448677 4.4569434 2.0425157 6.39 3.55.7391672.5899938 1.4100062 1.2608328 2 2 1.7251108 2.24679 2.6254182 5.0183248 2.55 7.85.0825192 2.7336863-.7830863 5.4117637-2.45 7.58l5.83-1.35c1.1968411-.2736231 2.235098-1.0133481 2.8846072-2.0551908.6495091-1.0418427.8566103-2.2997297.5753928-3.4948092z"/></g><g transform="translate(32 75)"><path d="m23.42 9c-3.7891684-.03482928-7.4726469 1.2483787-10.42 3.63l-3.67-8.19c2.1526357-1.22252509 4.4329571-2.20507534 6.8-2.93l.27-.07-3.51-.81c-2.490642-.57340885-4.97482528.9797652-5.55 3.47l-7.09 30.66c-.57340885 2.490642.9797652 4.9748253 3.47 5.55l8.56 2c-.3062568-.2983652-.5934879-.6156554-.86-.95-1.53396158-1.9660362-2.33013304-4.4076286-2.25-6.9 0-4.1333333 2-7.5966667 6-10.39 1.6814517-1.1499426 3.4818268-2.1155069 5.37-2.88 2.5251103-.913303 4.9034849-2.1900792 7.06-3.79 1.1888244-1.0337559 1.8528149-2.5451598 1.81-4.12.02-2.88-1.98-4.28-5.99-4.28z" fill="url(#a)"/><path d="m43.53 7.7-5.84-1.35c1.6844672 2.18644176 2.5543445 4.8915482 2.46 7.65.075547 2.8394466-.8284045 5.6183913-2.56 7.87-.5901808.7389999-1.2610001 1.4098192-2 2-1.9389644 1.5121367-4.1015274 2.7131857-6.41 3.56-2.6367845.9017669-5.1628982 2.0994065-7.53 3.57-1.0359329.6607277-1.6965523 1.7741312-1.78 3 0 2.8533333 1.8 4.2833333 5.4 4.29 4 0 7.15-1 9.39-2.89l3 8c-2.1079359 1.0939451-4.3456616 1.9171325-6.66 2.45-.58.1266667-1.1666667.2366667-1.76.33l5.16 1.19c2.4875148.573968 4.970249-.9738266 5.55-3.46l7.05-30.66c.2781452-1.1962897.0685003-2.454096-.5826127-3.49550159-.6511131-1.04140557-1.6900981-1.78068749-2.8873873-2.05449841z" fill="url(#b)"/></g><g fill="#fff" transform="translate(95 61)"><path d="m.5 1h1.72l4.24 10.94 4.22-10.94h1.72v12.46h-1.17v-10.78l-4.23 10.78h-1.1l-4.2-10.78v10.78h-1.2z"/><path d="m21.85 1h1.3l4.85 12.46h-1.29l-1.49-3.88h-5.58l-1.48 3.88h-1.25zm-1.85 7.57h4.82l-2.37-6.4z"/><path d="m43 13.46h-.84l-.16-2.27c-.7666658 1.6277038-2.4434633 2.6282457-4.24 2.53-3.86 0-5.78-3.09-5.78-6.5s1.92-6.5 5.78-6.5c2.5301931-.1823347 4.768679 1.62769098 5.12 4.14h-1.17c-.3520604-1.8822765-2.0370819-3.21749603-3.95-3.13-3.24 0-4.62 2.76-4.62 5.49s1.37 5.49 4.62 5.49c2.71 0 4.29-1.94 4.24-4.58h-4.17v-1h5.17z"/><path d="m52.25 1h1.3l4.81 12.47h-1.25l-1.49-3.88h-5.62l-1.48 3.88h-1.25zm-1.85 7.58h4.82l-2.37-6.4z"/><path d="m62.31 1h8.82v1l-8.07 10.41h8.24v1h-9.54v-1l8.07-10.41h-7.52z"/><path d="m76.28 1h1.17v12.46h-1.17z"/><path d="m83.42 1h1.3l7.14 10.55v-10.55h1.17v12.46h-1.3l-7.14-10.55v10.55h-1.17z"/><path d="m99 1h8.46v1h-7.3v4.51h6.84v1h-6.83v4.93h7.38v1h-8.55z"/></g></g></svg>