<svg height="126" viewBox="0 0 142 126" width="142" xmlns="http://www.w3.org/2000/svg"><g fill="#00c8dc" fill-rule="evenodd" transform="translate(.2835 .023)"><path d="m136.899629 71.7468353c-.741168 2.1351058-2.408075 3.7812773-5.651045 3.7812773-3.334535 0-6.020909-2.3581043-6.159337-5.6497546h16.488104c.046143-.0893379.139149-.8005781.139149-1.6461715 0-6.8513143-4.076424-11.2551865-11.023071-11.2551865-5.697189 0-10.976929 4.5375327-10.976929 11.3888471 0 7.3402487 5.41889 11.6111529 11.532084 11.6111529 5.418889 0 8.98558-3.0693445 10.189618-6.8513143zm-11.183129-5.7698353c.184133-2.4077544 2.117176-5 5.478148-5 3.681235 0 5.430144 2.3609109 5.521852 5zm-13.651521-15h-4.78854v3.2972285c0 1.9421934-1.04929 3.4329429-3.420487 3.4329429h-1.139452v4.6529667h4.104158v11.0667055c0 4.1108121 2.553651 6.5501564 6.65781 6.5501564 1.915415 0 2.918559-.3614364 3.238032-.4971509v-4.336534c-.22789.0457069-1.094726.1807182-1.823834.1807182-1.961562 0-2.827687-.8128804-2.827687-2.7550738v-10.2088214h4.606085v-4.6529667h-4.606085zm-24.0203616 25c-2.1562348 0-3.3281174-1.4188493-3.3281174-2.9798044 0-1.8915535 1.359413-2.8376985 3.0464569-3.1211738l5.9535431-.8990218v1.0403913c0 4.4936363-2.6254257 5.9596087-5.6718826 5.9596087zm-9.3281174-2.5396706c0 3.4253109 2.943915 6.5396706 7.7100458 6.5396706 3.6917146 0 5.9351131-1.779832 7.0095294-3.4253109 0 1.7348168.1869499 2.6247328.2335055 2.7577008h5.0469193c-.0465556-.2223059-.2800611-1.5125109-.2800611-3.4696336v-10.7662521c0-4.3152269-2.6638539-8.0965042-9.6733833-8.0965042-5.6070415 0-9.1583618 3.3366656-9.5788172 7.0736202l4.9530807 1.0672066c.2335055-2.1794285 1.8222157-3.9149378 4.6730196-3.9149378 2.9904706 0 4.2991198 1.4681883 4.2991198 3.2923429 0 .7562555-.3738998 1.3788504-1.682549 1.5568336l-5.8412744.8455933c-3.8786645.5339496-6.8691351 2.6690555-6.8691351 6.5396706zm-2-16.4603294h-5.5569804l-5.738479 15.7208158-5.8753122-15.7208158h-5.8292284l9.0175087 22h5.2833143zm-33-7.4769072c0 1.9470103 1.5760825 3.4769072 3.4769072 3.4769072 1.9470103 0 3.5230928-1.5298969 3.5230928-3.4769072s-1.5760825-3.5230928-3.5230928-3.5230928c-1.9008247 0-3.4769072 1.5760825-3.4769072 3.5230928zm1 29.4769072h5v-22h-5zm-5-21.8666204c-.2279331-.0444598-.7753987-.1333796-1.4144636-.1333796-2.9183964 0-5.3816365 1.3831191-6.431123 3.7485238v-3.4810698h-5.1544134v21.732546h5.2921674v-10.3529003c0-4.0611324 1.8696198-6.3813824 5.9745466-6.3813824.5474656 0 1.1410859.0444598 1.733286.1340743zm-27.6294646 9.3645236c6.3968613 0 10.6294646-4.1067077 10.6294646-9.7486003 0-5.5969261-4.2326033-9.7493029-10.6294646-9.7493029h-12.3705354v32h5.64420322v-12.5020968zm-6.3705354-4.4979032v-10h5.5668999c3.3852019 0 5.4331001 1.9549989 5.4331001 5.0456379 0 3.0453548-2.0478982 4.9543621-5.4331001 4.9543621z"/><path d="m104.899629 25.3892606c-.741168 2.2278695-2.408796 3.9455619-5.6503244 3.9455619-3.334535 0-6.0209084-2.4605565-6.1600577-5.8952186h16.4881041c.046143-.0932193.139149-.8360834.139149-1.7176924 0-7.1489823-4.075703-11.7449115-11.0230714-11.7449115-5.6964672 0-10.9769286 4.7353968-10.9769286 11.8843791 0 7.6591594 5.4188897 12.1156209 11.5328046 12.1156209 5.4188894 0 8.9848594-3.2034205 10.1888974-7.1489823zm-11.183129-5.4122606c.1841334-2.4073807 2.1171758-5 5.4767146-5 3.6819514 0 5.4308604 2.3612513 5.5232854 5zm-25.6417401-.0356705c.0920367-2.8260982 1.7091498-5.0136103 4.6651088-5.0136103 3.3715621 0 4.6190904 2.1875121 4.6190904 4.9227892v13.1264916h5.3575409v-14.0382507c0-4.8773785-2.6784109-8.796878-8.2214632-8.796878-2.3555636 0-4.8959195.8202284-6.4202769 2.7799781v-12.9448494h-5.3582599v33h5.3582599zm-9.3582599-13.70476204v-5.25956746h-27v5.25956746h10.6884495v27.74043254h5.5768025v-27.74043254z"/><path d="m105.7165 119.152996c.280204 2.55313 2.804949 6.824004 9.39738 6.824004 5.796943 0 8.60262-3.806931 8.60262-7.241697 0-3.342266-2.244541-5.942369-6.545852-6.870977l-3.459243-.695914c-1.403202-.278943-2.29112-1.160579-2.29112-2.367408 0-1.392551 1.355895-2.600102 3.272925-2.600102 3.038574 0 4.020379 2.089187 4.207424 3.389238l4.581514-1.300051c-.374091-2.227936-2.430859-6.313089-8.788938-6.313089-4.722707 0-8.368995 3.342266-8.368995 7.287947 0 3.110295 2.104075 5.709674 6.124454 6.592033l3.366084.742886c1.823872.371443 2.665211 1.299328 2.665211 2.50688 0 1.392551-1.16885 2.59938-3.413391 2.59938-2.898108 0-4.441048-1.810244-4.628093-3.853181zm-21 0c.2802151 2.55313 2.8050625 6.824004 9.3977599 6.824004 5.7971776 0 8.6022401-3.806931 8.6022401-7.241697 0-3.342266-2.243904-5.942369-6.5453884-6.870977l-3.4601108-.695914c-1.4025312-.278943-2.2904856-1.160579-2.2904856-2.367408 0-1.392551 1.35595-2.600102 3.2723303-2.600102 3.0394242 0 4.0212688 2.089187 4.2083215 3.389238l4.581699-1.300051c-.374105-2.227936-2.430957-6.313089-8.7900205-6.313089-4.7221706 0-8.3686062 3.342266-8.3686062 7.287947 0 3.110295 2.1034329 5.709674 6.1247018 6.592033l3.3662205.742886c1.8232178.371443 2.6653188 1.299328 2.6653188 2.50688 0 1.392551-1.1688973 2.59938-3.4135295 2.59938-2.8982249 0-4.4412277-1.810244-4.6282803-3.853181zm-7.8170288-1.763994c-.7411923 2.227937-2.4081539 3.945681-5.6505096 3.945681-3.3346443 0-6.0211058-2.460631-6.1602596-5.895396h16.4886442c.0468653-.093223.1391538-.835386.1391538-1.717745 0-7.149197-4.0758365-11.744542-11.0234326-11.744542-5.6966539 0-10.9765674 4.734817-10.9765674 11.884014 0 7.65939 5.4190673 12.115986 11.5324616 12.115986 5.4190673 0 8.9851538-3.202794 10.1899518-7.149198zm-11.1829712-6.412002c.1841334-2.407754 2.1171758-5 5.4774311-5 3.6819514 0 5.4308604 2.360911 5.5225689 5zm-8-8.860558c-.2279331-.04648-.7753987-.139442-1.4144636-.139442-2.9191064 0-5.3823465 1.445988-6.431123 3.918911v-3.6393h-5.1544134v22.720389h5.2914573v-10.823487c0-4.245729 1.8696198-6.671445 5.9752567-6.671445.5474656 0 1.1403758.046481 1.733286.140169zm-27.6298029 9.967771c6.3970649 0 10.6298029-4.235043 10.6298029-10.053244 0-5.7718305-4.232738-10.053969-10.6298029-10.053969h-12.3701971v33h5.6443829v-12.892787zm-6.3701971-5.107213v-10h5.5668999c3.3845087 0 5.4331001 1.9549989 5.4331001 5.045638 0 3.045355-2.0485914 4.954362-5.4331001 4.954362z"/></g></svg>