<svg height="102" viewBox="0 0 365 102" width="365" xmlns="http://www.w3.org/2000/svg"><g fill="none"><path d="m346.60001 101.34724c-5.205 0-12.96125-1.59375-13.9175-1.81v-7.75125c2.55125.53 9.135 1.62875 13.8125 1.62875 5.41625 0 8.9225-4.60625 8.9225-12.78375 0-9.66875-1.59125-14.7675-9.135-14.7675h-8.7125v-7.755h7.64875c8.6075 0 9.03-8.81875 9.03-13.0675 0-8.395-2.65625-11.79375-7.96625-11.79375-4.675 0-9.98875 1.16875-13.06875 1.80625v-7.75375c1.17-.21375 7.43875-1.80625 12.855-1.80625 10.94375 0 17.21125 4.67375 17.21125 20.505 0 7.22375-2.55125 13.59625-8.18125 15.61625 6.47875.42375 9.45375 7.54125 9.45375 17.95375 0 15.82875-6.15875 21.77875-17.9525 21.77875zm-48.867497-68.1c-9.55875 0-12.74875 6.48375-12.74875 29.85375 0 22.8425 3.19 30.49125 12.74875 30.49125 9.561247 0 12.748747-7.64875 12.748747-30.49125 0-23.37-3.1875-29.85375-12.748747-29.85375zm0 68.1c-17.52875 0-22.205-12.74875-22.205-38.77625 0-24.9675 4.67625-37.0775 22.205-37.0775 17.529997 0 22.202497 12.11 22.202497 37.0775 0 26.0275-4.6725 38.77625-22.202497 38.77625zm-52.91-68.20375c-5.845 0-9.98625.63625-9.98625.63625v31.02h9.98625c5.94875 0 10.0925-3.93125 10.0925-15.51 0-10.625-2.55-16.14625-10.0925-16.14625zm-1.0625 39.4125h-8.92375v28.045h-9.2425v-74.365s9.13625-.7425 17.95375-.7425c16.14875 0 20.825 9.985 20.825 23.0525 0 16.15-5.52625 24.01-20.6125 24.01zm-48.0175-6.48v34.525h-9.56125v-34.525l-19.015-39.84h10.19625l14.02375 30.065 14.02375-30.065h9.66625zm-49.58-31.76375v66.28875h-9.24125v-66.28875h-16.36125v-8.07625h41.9625v8.07625z" fill="#000"/><g fill="#ff8700"><path d="m76.03114 69.91486c-1.50125.4425-2.6975.595-4.2625.595-12.84 0-31.7-44.87-31.7-59.80375 0-5.50125 1.30625-7.335 3.1425-8.90625-15.7175 1.8325-34.58 7.5975-40.6075 14.9325-1.30875 1.835-2.095 4.71625-2.095 8.3825 0 23.3175 24.8875 76.23375 42.44125 76.23375 8.12 0 21.81625-13.36 33.08125-31.43375"/><path d="m67.83539.22674c16.2425 0 32.4875 2.62 32.4875 11.78875 0 18.60125-11.78875 41.13125-17.815 41.13125-10.74 0-24.10125-29.86375-24.10125-44.7975 0-6.81125 2.62-8.1225 9.42875-8.1225"/></g></g></svg>