<svg xmlns="http://www.w3.org/2000/svg" width="550" height="550">
  <g fill="none" fill-rule="evenodd" transform="translate(1 56)">
    <path fill="#ff3ebb" d="M59.6 69.6l317-55.8 170.9 364.5-506.2 57.1z"/>
    <path fill="#fff" d="M104.6 46h292.2l120 358.6H.7z"/>
    <path fill="#402b56" d="M261.5 329a52.4 52.4 0 0 1-45.3-23.6v20.8H185V118h31.2v81.6a51.5 51.5 0 0 1 44.8-23.4c40.6 0 63 35 63 76.3 0 41.1-22.4 76.5-62.5 76.5zm-7.5-28.1c26.6 0 39.4-21.1 39.4-48.4 0-27-12.8-48.6-39.4-48.6-26.5 0-40.6 21.2-40.6 48.6 0 27.6 14 48.4 40.6 48.4z"/>
    <circle cx="348" cy="313" r="15" fill="#ff3c82"/>
  </g>
</svg>